<svg width="1320" height="1008" viewBox="0 0 1320 1008" fill="none" xmlns="http://www.w3.org/2000/svg">
<path d="M608.266 0.00813519C289.376 0.00813519 30.8737 216.587 30.8737 483.743V856.906C123.967 850.767 233.539 859.475 346.919 885.147C471.802 913.42 580.352 957.518 659.571 1007.85V0H608.266V0.00813519Z" fill="#BCB4AD"/>
<path d="M710.876 0.00817871H659.58V1007.86C738.789 957.518 847.349 913.428 972.222 885.155C1085.6 859.483 1195.17 850.775 1288.27 856.914V483.751C1288.27 216.579 1029.76 0.00817871 710.876 0.00817871Z" fill="#8E8A87"/>
<path d="M659.571 172.861V904.914C701.137 904.914 1241.9 913.242 1241.9 532.889C1241.9 109.998 887.614 67.4674 659.571 172.861Z" fill="#2D2B2C"/>
<path d="M659.571 172.861V904.914C618.004 904.914 77.2421 913.242 77.2421 532.889C77.2421 109.998 431.528 67.4674 659.571 172.861Z" fill="#3F3F3F"/>
<path d="M659.571 172.861V904.914C696.413 904.914 1175.69 913.242 1175.69 532.889C1175.69 109.998 861.686 67.4674 659.571 172.861Z" fill="#BCB4AD"/>
<path d="M659.571 172.861V904.914C622.729 904.914 143.454 913.242 143.454 532.889C143.454 109.998 457.455 67.4674 659.571 172.861Z" fill="#E2DCD7"/>
<path d="M576.023 569.475C542.362 667.065 311.186 673.132 417.123 871.382C531.756 906.651 642.601 904.914 659.571 904.914V473.04H533.781C561.405 490.432 589.869 529.335 576.023 569.475Z" fill="#D1C6BF"/>
<path d="M397.81 600.543C461.498 600.543 513.128 557.288 513.128 503.93C513.128 450.572 461.498 407.317 397.81 407.317C334.121 407.317 282.491 450.572 282.491 503.93C282.491 557.288 334.121 600.543 397.81 600.543Z" fill="#3F3F3F"/>
<path d="M417.123 569.475C467.099 569.475 507.613 535.533 507.613 493.663C507.613 451.793 467.099 417.851 417.123 417.851C367.146 417.851 326.632 451.793 326.632 493.663C326.632 535.533 367.146 569.475 417.123 569.475Z" fill="#EDC156"/>
<path d="M608.266 0.00817871C468.833 0.00817871 340.941 41.416 241.156 110.362C341.799 434.613 659.571 503.938 659.571 503.938V0.00817871H608.266Z" fill="#E2DCD7"/>
<path d="M0 104.449C0 104.449 139.375 68.2268 249.911 104.449C249.911 104.449 306.567 248.681 433.668 365.158C433.668 365.158 23.7193 137.269 0 104.449Z" fill="#BCB4AD"/>
<path d="M659.571 503.93C659.571 503.93 510.824 484.656 397.81 407.317C258.338 311.875 77.2421 293.546 77.2421 293.546L0 104.448C0 104.448 256.014 186.731 433.678 365.158C537.59 469.518 659.571 503.93 659.571 503.93Z" fill="#848280"/>
<path d="M743.119 569.475C776.779 667.065 1007.96 673.132 902.019 871.382C787.385 906.651 676.541 904.914 659.571 904.914V473.04H785.36C757.736 490.432 729.273 529.335 743.119 569.475Z" fill="#A59992"/>
<path d="M659.571 667.065V807.13C659.571 807.13 700.829 759.986 700.829 725.081C700.829 690.168 669.81 667.065 659.571 667.065Z" fill="#876949"/>
<path d="M659.571 667.065C647.75 667.065 618.312 690.168 618.312 725.073C618.312 759.978 659.571 807.121 659.571 807.121V667.065Z" fill="#C49965"/>
<path d="M921.332 600.543C985.02 600.543 1036.65 557.288 1036.65 503.93C1036.65 450.572 985.02 407.317 921.332 407.317C857.643 407.317 806.013 450.572 806.013 503.93C806.013 557.288 857.643 600.543 921.332 600.543Z" fill="#2D2B2C"/>
<path d="M902.019 569.475C951.995 569.475 992.509 535.533 992.509 493.663C992.509 451.793 951.995 417.851 902.019 417.851C852.042 417.851 811.529 451.793 811.529 493.663C811.529 535.533 852.042 569.475 902.019 569.475Z" fill="#EDC156"/>
<path d="M449.905 533.94C481.776 533.94 507.613 512.294 507.613 485.593C507.613 458.892 481.776 437.246 449.905 437.246C418.034 437.246 392.198 458.892 392.198 485.593C392.198 512.294 418.034 533.94 449.905 533.94Z" fill="#2D2B2C"/>
<path d="M870.557 536.153C903.157 536.153 929.585 514.012 929.585 486.7C929.585 459.387 903.157 437.246 870.557 437.246C837.956 437.246 811.529 459.387 811.529 486.7C811.529 514.012 837.956 536.153 870.557 536.153Z" fill="#2D2B2C"/>
<path d="M710.876 0.00817871C850.309 0.00817871 978.2 41.416 1077.99 110.362C977.342 434.613 659.571 503.938 659.571 503.938V0.00817871H710.876Z" fill="#BCB4AD"/>
<path d="M1319.15 104.449C1319.15 104.449 1179.78 68.2268 1069.24 104.449C1069.24 104.449 1012.58 248.681 885.483 365.158C885.483 365.158 1295.42 137.269 1319.15 104.449Z" fill="#8E8A87"/>
<path d="M659.571 503.93C659.571 503.93 808.318 484.656 921.332 407.317C1060.8 311.875 1241.9 293.546 1241.9 293.546L1319.14 104.448C1319.14 104.448 1063.13 186.731 885.463 365.158C781.552 469.518 659.571 503.93 659.571 503.93Z" fill="#605D5B"/>
</svg>
