<svg width="5252" height="4320" viewBox="0 0 5252 4320" fill="none" xmlns="http://www.w3.org/2000/svg">
<path d="M1741.63 1792.89C1731.96 1811.07 1725.45 1831.04 1721.98 1851.63L1695.4 1854.72V1918.24L1721.99 1921.34C1725.46 1941.93 1731.96 1961.89 1741.63 1980.07L1724.65 2005.38L1761.06 2050.3L1781.57 2029.35C1796.3 2041.28 1812.49 2049.31 1829.17 2053.58L1831.68 2086.39H1883.16L1885.67 2053.59C1902.36 2049.31 1918.54 2041.29 1933.28 2029.35L1953.78 2050.31L1990.19 2005.39L1973.21 1980.08C1982.88 1961.9 1989.39 1941.93 1992.85 1921.35L2019.44 1918.25V1854.73L1992.85 1851.64C1989.39 1831.05 1982.88 1811.08 1973.2 1792.9L1990.19 1767.6L1953.78 1722.69L1933.28 1743.63C1918.54 1731.7 1902.36 1723.66 1885.67 1719.39L1883.16 1686.59H1831.68L1829.17 1719.39C1812.49 1723.66 1796.3 1731.69 1781.57 1743.62L1761.06 1722.67L1724.65 1767.59L1741.63 1792.89ZM1906.7 1825.68C1933.91 1859.26 1933.91 1913.71 1906.7 1947.28C1879.48 1980.87 1835.35 1980.87 1808.14 1947.28C1780.92 1913.7 1780.93 1859.26 1808.14 1825.68C1835.35 1792.1 1879.48 1792.1 1906.7 1825.68Z" fill="#F5F5F5"/>
<path d="M3032.41 1924.79C3026.1 1936.63 3021.87 1949.64 3019.61 1963.06L3002.29 1965.07V2006.46L3019.61 2008.47C3021.87 2021.89 3026.11 2034.89 3032.41 2046.74L3021.35 2063.22L3045.07 2092.49L3058.43 2078.84C3068.03 2086.61 3078.57 2091.84 3089.44 2094.62L3091.08 2116H3124.62L3126.25 2094.63C3137.12 2091.84 3147.66 2086.61 3157.26 2078.84L3170.63 2092.49L3194.34 2063.22L3183.28 2046.74C3189.58 2034.89 3193.82 2021.89 3196.08 2008.47L3213.4 2006.46V1965.07L3196.08 1963.06C3193.83 1949.64 3189.58 1936.64 3183.28 1924.79L3194.34 1908.31L3170.63 1879.04L3157.26 1892.7C3147.66 1884.92 3137.12 1879.68 3126.25 1876.9L3124.62 1855.54H3091.08L3089.44 1876.9C3078.57 1879.68 3068.03 1884.92 3058.43 1892.7L3045.07 1879.04L3021.35 1908.31L3032.41 1924.79ZM3139.95 1946.14C3157.68 1968.02 3157.68 2003.5 3139.95 2025.37C3122.22 2047.25 3093.46 2047.25 3075.73 2025.37C3058 2003.5 3058 1968.02 3075.73 1946.14C3093.46 1924.27 3122.22 1924.27 3139.95 1946.14Z" fill="#F5F5F5"/>
<path d="M3240.67 2235.26C3234.17 2247.46 3229.8 2260.86 3227.48 2274.69L3209.64 2276.76V2319.39L3227.48 2321.46C3229.8 2335.28 3234.17 2348.68 3240.67 2360.89L3229.27 2377.87L3253.7 2408.01L3267.47 2393.95C3277.36 2401.96 3288.22 2407.35 3299.42 2410.22L3301.1 2432.24H3335.65L3337.33 2410.22C3348.53 2407.35 3359.4 2401.96 3369.28 2393.95L3383.04 2408.01L3407.48 2377.87L3396.08 2360.88C3402.57 2348.68 3406.94 2335.28 3409.27 2321.46L3427.11 2319.39V2276.76L3409.27 2274.69C3406.94 2260.87 3402.57 2247.47 3396.08 2235.27L3407.48 2218.29L3383.04 2188.14L3369.28 2202.2C3359.39 2194.19 3348.53 2188.8 3337.33 2185.93L3335.65 2163.91H3301.1L3299.42 2185.93C3288.22 2188.8 3277.36 2194.19 3267.47 2202.2L3253.7 2188.14L3229.27 2218.29L3240.67 2235.26ZM3351.45 2257.27C3369.71 2279.8 3369.71 2316.35 3351.45 2338.88C3333.18 2361.42 3303.56 2361.42 3285.3 2338.88C3267.03 2316.34 3267.04 2279.8 3285.3 2257.27C3303.57 2234.73 3333.19 2234.73 3351.45 2257.27Z" fill="#E0E0E0"/>
<path d="M702.956 2416.79C687.669 2445.51 677.389 2477.06 671.913 2509.6L629.904 2514.48L629.897 2614.85L671.906 2619.73C677.375 2652.27 687.662 2683.82 702.949 2712.55L676.121 2752.52L733.648 2823.49L766.05 2790.39C789.334 2809.25 814.9 2821.94 841.272 2828.68L845.229 2880.52L926.579 2880.51L930.535 2828.68C956.907 2821.93 982.474 2809.24 1005.76 2790.38L1038.16 2823.48L1095.69 2752.51L1068.86 2712.53C1084.14 2683.8 1094.43 2652.26 1099.89 2619.73L1141.9 2614.84L1141.9 2514.47L1099.9 2509.59C1094.43 2477.06 1084.14 2445.51 1068.86 2416.79L1095.69 2376.8L1038.17 2305.83L1005.77 2338.93C982.481 2320.07 956.914 2307.38 930.542 2300.63L926.586 2248.8L845.236 2248.81L841.279 2300.64C814.907 2307.4 789.341 2320.08 766.064 2338.94L733.655 2305.84L676.128 2376.82L702.956 2416.79ZM963.777 2468.59C1006.78 2521.64 1006.78 2607.68 963.777 2660.74C920.767 2713.81 851.041 2713.8 808.038 2660.74C765.034 2607.68 765.034 2521.65 808.038 2468.59C851.048 2415.53 920.767 2415.53 963.777 2468.59Z" fill="#F5F5F5"/>
<path d="M4095.71 2470.63C4085.88 2489.11 4079.26 2509.4 4075.74 2530.34L4048.72 2533.47V2598.03L4075.75 2601.17C4079.27 2622.09 4085.88 2642.39 4095.72 2660.87L4078.46 2686.59L4115.46 2732.24L4136.31 2710.96C4151.29 2723.09 4167.73 2731.24 4184.69 2735.59L4187.23 2768.93H4239.55L4242.1 2735.6C4259.06 2731.25 4275.51 2723.09 4290.48 2710.96L4311.33 2732.24L4348.33 2686.59L4331.08 2660.87C4340.91 2642.39 4347.52 2622.1 4351.04 2601.18L4378.06 2598.04L4378.07 2533.48L4351.05 2530.34C4347.53 2509.41 4340.91 2489.12 4331.08 2470.64L4348.33 2444.92L4311.33 2399.27L4290.48 2420.56C4275.51 2408.43 4259.06 2400.26 4242.1 2395.92L4239.55 2362.57H4187.23L4184.69 2395.92C4167.73 2400.26 4151.28 2408.42 4136.31 2420.55L4115.46 2399.26L4078.46 2444.91L4095.71 2470.63ZM4263.48 2503.95C4291.14 2538.08 4291.14 2593.42 4263.48 2627.55C4235.81 2661.69 4190.96 2661.68 4163.3 2627.55C4135.63 2593.42 4135.64 2538.09 4163.3 2503.95C4190.97 2469.82 4235.82 2469.82 4263.48 2503.95Z" fill="#F5F5F5"/>
<path d="M630.702 2991.2C622.936 3005.79 617.719 3021.81 614.939 3038.33L593.609 3040.81V3091.78L614.939 3094.26C617.719 3110.78 622.943 3126.8 630.702 3141.39L617.075 3161.7L646.283 3197.73L662.739 3180.93C674.56 3190.5 687.543 3196.95 700.939 3200.38L702.949 3226.69H744.257L746.267 3200.38C759.656 3196.95 772.646 3190.5 784.467 3180.93L800.923 3197.73L830.131 3161.7L816.511 3141.39C824.27 3126.81 829.494 3110.79 832.274 3094.26L853.604 3091.78V3040.81L832.274 3038.33C829.494 3021.81 824.27 3005.8 816.511 2991.21L830.131 2970.91L800.923 2934.87L784.467 2951.67C772.646 2942.09 759.656 2935.66 746.267 2932.23L744.257 2905.91H702.949L700.939 2932.23C687.55 2935.66 674.567 2942.09 662.739 2951.67L646.283 2934.86L617.075 2970.9L630.702 2991.2ZM763.151 3017.5C784.985 3044.45 784.985 3088.13 763.151 3115.07C741.309 3142.02 705.904 3142.02 684.062 3115.07C662.221 3088.13 662.228 3044.44 684.062 3017.49C705.904 2990.56 741.309 2990.56 763.151 3017.5Z" fill="#E0E0E0"/>
<path d="M3295.6 1832.72C3286.18 1850.41 3279.85 1869.85 3276.48 1889.9L3250.6 1892.9V1954.74L3276.48 1957.75C3279.85 1977.79 3286.18 1997.23 3295.6 2014.93L3279.07 2039.56L3314.51 2083.29L3334.47 2062.9C3348.82 2074.52 3364.57 2082.33 3380.82 2086.49L3383.25 2118.42H3433.37L3435.81 2086.5C3452.06 2082.34 3467.81 2074.52 3482.15 2062.9L3502.12 2083.29L3537.56 2039.57L3521.03 2014.93C3530.45 1997.24 3536.78 1977.8 3540.16 1957.75L3566.03 1954.75L3566.04 1892.91L3540.16 1889.9C3536.78 1869.86 3530.44 1850.43 3521.03 1832.73L3537.56 1808.1L3502.12 1764.37L3482.15 1784.76C3467.8 1773.14 3452.06 1765.32 3435.81 1761.17L3433.37 1729.24H3383.25L3380.82 1761.17C3364.57 1765.33 3348.82 1773.14 3334.47 1784.76L3314.51 1764.37L3279.07 1808.1L3295.6 1832.72ZM3456.29 1864.63C3482.78 1897.33 3482.79 1950.32 3456.29 1983.02C3429.79 2015.71 3386.83 2015.71 3360.34 1983.02C3333.84 1950.32 3333.85 1897.33 3360.34 1864.63C3386.83 1831.95 3429.79 1831.95 3456.29 1864.63Z" fill="#E0E0E0"/>
<path d="M1159.64 1136.5L499.813 1329.96L612.068 1912.78L1271.89 1719.32L1159.64 1136.5Z" fill="#E0E0E0"/>
<path d="M1138.25 1166.83L529.979 1345.18L633.463 1882.46L1241.73 1704.11L1138.25 1166.83Z" fill="#FAFAFA"/>
<path d="M633.524 1882.41L617.915 1801.4C640.037 1710.07 712.311 1571.69 743.55 1560.7C795.405 1542.46 899.514 1635.06 899.514 1635.06C899.514 1635.06 1002.35 1413.53 1035.53 1394.1C1088.39 1363.14 1205.1 1513.63 1205.1 1513.63L1241.78 1704.03L633.524 1882.41Z" fill="#EBEBEB"/>
<path d="M907.763 1415.96C912.328 1453.03 891.678 1487.65 861.629 1493.29C831.581 1498.93 803.521 1473.45 798.948 1436.37C794.382 1399.3 815.033 1364.68 845.082 1359.04C875.13 1353.4 903.197 1378.88 907.763 1415.96Z" fill="#EBEBEB"/>
<path d="M4318.03 767.934L3486.53 725.951L3462.04 1460.39L4293.54 1502.38L4318.03 767.934Z" fill="#E0E0E0"/>
<path d="M4284.57 795.089L3518.05 756.283L3495.54 1433.35L4262.05 1472.16L4284.57 795.089Z" fill="#FAFAFA"/>
<path d="M3495.35 1433.44L3498.74 1331.35C3549.48 1232.56 3672.14 1098.76 3711.99 1098.59C3778.16 1098.32 3876.16 1250.4 3876.16 1250.4C3876.16 1250.4 4057.33 1030.93 4101.74 1021.6C4172.52 1006.73 4269.82 1232.35 4269.82 1232.35L4261.84 1472.27L3495.35 1433.44Z" fill="#EBEBEB"/>
<path d="M3944.95 995.017C3940.35 1040.68 3906.63 1073.1 3869.62 1067.43C3832.61 1061.76 3806.33 1020.15 3810.93 974.488C3815.52 928.826 3849.25 896.409 3886.26 902.077C3923.26 907.744 3949.55 949.355 3944.95 995.017Z" fill="#EBEBEB"/>
<path d="M4772.4 1985.57L4319.33 1881.46L4258.92 2281.65L4711.99 2385.76L4772.4 1985.57Z" fill="#E0E0E0"/>
<path d="M4752.33 1997.15L4334.67 1901.18L4278.98 2270.09L4696.64 2366.07L4752.33 1997.15Z" fill="#FAFAFA"/>
<path d="M4278.83 2270.29L4287.24 2214.67C4321.37 2165.46 4397.17 2104.07 4419.03 2107.87C4455.31 2114.16 4499.3 2207.08 4499.3 2207.08C4499.3 2207.08 4612.66 2104.44 4637.6 2103.65C4677.35 2102.4 4716.24 2235.55 4716.24 2235.55L4696.5 2366.29L4278.83 2270.29Z" fill="#EBEBEB"/>
<path d="M4553.36 2073.8C4547.92 2098.38 4527.35 2112.86 4507.43 2106.15C4487.5 2099.43 4475.77 2074.06 4481.21 2049.48C4486.65 2024.9 4507.22 2010.42 4527.14 2017.13C4547.06 2023.84 4558.8 2049.22 4553.36 2073.8Z" fill="#EBEBEB"/>
<path d="M2458.76 613.475C2459.78 613.483 2460.61 614.529 2460.6 615.799C2460.6 616.611 2460.25 617.354 2459.68 617.769L2297.61 723.056L2289.89 728.136L2206.93 781.955L1921.45 793.817C1920.43 793.809 1919.6 792.772 1919.61 791.493C1919.61 790.681 1919.96 789.938 1920.53 789.523L2169.77 627.592C2172.07 626.072 2174.63 625.242 2177.23 625.147L2266.87 621.328L2275.62 621.017L2458.76 613.475Z" fill="#E6E6E6"/>
<path d="M2340.78 654.359C2335.1 642.963 2266.74 654.774 2185.32 681.411C2103.9 708.048 2039.78 739.558 2039.42 752.933L2072.9 908.747C2073.52 911.641 2075.93 913.369 2078.27 912.6C2078.29 912.591 2078.31 912.583 2078.34 912.583L2371.33 816.748C2373.68 816.022 2375.12 813.085 2374.53 810.173C2374.52 810.147 2374.52 810.121 2374.51 810.095L2341.03 654.281L2340.78 654.359Z" fill="#EBEBEB"/>
<path d="M2316.14 777.254L2323.2 810.13L2321.08 810.821L2315.19 791.078L2317.93 811.858L2314.46 812.998L2308.5 793.273L2311.24 814.052L2307.77 815.193L2301.81 795.468L2304.62 816.221L2302.5 816.912L2295.43 784.037C2294.38 778.887 2295.93 773.462 2299.36 770.256L2267.34 621.277L2276.1 620.966L2307.6 767.569C2311.73 768.433 2315.07 772.226 2316.14 777.254Z" fill="#E0E0E0"/>
<path d="M4717.93 2799.5H3452.23C3429.6 2799.5 3411.18 2776.78 3411.18 2748.85V474.163C3411.18 446.239 3429.6 423.516 3452.23 423.516H4717.93C4740.57 423.516 4758.98 446.23 4758.98 474.163V2748.84C4758.98 2776.78 4740.57 2799.5 4717.93 2799.5ZM3452.23 425.684C3430.56 425.684 3412.93 447.431 3412.93 474.172V2748.85C3412.93 2775.59 3430.56 2797.34 3452.23 2797.34H4717.93C4739.61 2797.34 4757.23 2775.59 4757.23 2748.85V474.163C4757.23 447.431 4739.6 425.676 4717.93 425.676L3452.23 425.684Z" fill="#E0E0E0"/>
<path d="M3258.38 2799.5H1992.68C1970.05 2799.5 1951.63 2776.78 1951.63 2748.85V474.163C1951.63 446.239 1970.04 423.516 1992.68 423.516H3258.39C3281.02 423.516 3299.44 446.23 3299.44 474.163V2748.84C3299.43 2776.78 3281.02 2799.5 3258.38 2799.5ZM1992.68 425.684C1971.01 425.684 1953.38 447.431 1953.38 474.172V2748.85C1953.38 2775.59 1971.01 2797.34 1992.68 2797.34H3258.39C3280.06 2797.34 3297.69 2775.59 3297.69 2748.85V474.163C3297.69 447.431 3280.06 425.676 3258.39 425.676L1992.68 425.684Z" fill="#E0E0E0"/>
<path d="M1799.77 2799.5H534.065C511.433 2799.5 493.016 2776.78 493.016 2748.85V474.163C493.016 446.239 511.426 423.516 534.065 423.516H1799.77C1822.4 423.516 1840.82 446.23 1840.82 474.163V2748.84C1840.83 2776.78 1822.41 2799.5 1799.77 2799.5ZM534.065 425.684C512.399 425.684 494.766 447.431 494.766 474.172V2748.85C494.766 2775.59 512.399 2797.34 534.065 2797.34H1799.77C1821.44 2797.34 1839.07 2775.59 1839.07 2748.85V474.163C1839.07 447.431 1821.44 425.676 1799.77 425.676L534.065 425.684Z" fill="#E0E0E0"/>
<path d="M5252 3327.13H0V3328.17H5252V3327.13Z" fill="#E0E0E0"/>
<path d="M4967.38 3580.94H4577.12V3584.58H4967.38V3580.94Z" fill="#EBEBEB"/>
<path d="M3569.06 3620.39H3466.63V3624.03H3569.06V3620.39Z" fill="#EBEBEB"/>
<path d="M793.535 3470.38H284.623V3474.01H793.535V3470.38Z" fill="#EBEBEB"/>
<path d="M973.056 3470.38H898.435V3474.01H973.056V3470.38Z" fill="#EBEBEB"/>
<path d="M2319.28 3531.76H1215.56V3535.39H2319.28V3531.76Z" fill="#EBEBEB"/>
<path d="M2145.39 533.969C1994.38 556.381 1848.77 604.1 1719.62 678.94C1567.41 767.154 1411.88 904.573 1457.82 1084.32C1542.62 1416.16 1949.44 1422.2 1868.22 1645.32C1776.21 1898.06 1837.91 2194.52 2250.78 2276.96C3034.95 2433.54 3982.89 1517.34 3716.65 1013.9C3550.9 700.471 2947.2 414.971 2145.39 533.969Z" fill="#EBB373"/>
<path opacity="0.9" d="M2145.39 533.969C1994.38 556.381 1848.77 604.1 1719.62 678.94C1567.41 767.154 1411.88 904.573 1457.82 1084.32C1542.62 1416.16 1949.44 1422.2 1868.22 1645.32C1776.21 1898.06 1837.91 2194.52 2250.78 2276.96C3034.95 2433.54 3982.89 1517.34 3716.65 1013.9C3550.9 700.471 2947.2 414.971 2145.39 533.969Z" fill="white"/>
<path d="M5041.72 3867.28C5041.72 3899.17 3947.62 3925.02 2597.99 3925.02C1248.36 3925.02 154.262 3899.17 154.262 3867.28C154.262 3835.39 1248.36 3809.54 2597.99 3809.54C3947.62 3809.54 5041.72 3835.39 5041.72 3867.28Z" fill="#F5F5F5"/>
<path d="M737.367 3447.96L706.478 3442.62C711.933 3395.11 744.166 3305.15 826.546 3305.15C924.058 3305.15 972.663 3374.65 977.502 3443.64L946.613 3446.94C943.007 3395.36 904.394 3343.27 826.448 3343.27C750.854 3343.27 738.081 3443.77 737.367 3447.96Z" fill="#263238"/>
<path d="M597.012 3414.42H1098.8C1126.27 3414.42 1148.53 3441.89 1148.53 3475.78V3795.94C1148.53 3829.83 1126.26 3857.3 1098.8 3857.3H597.012C569.548 3857.3 547.279 3829.83 547.279 3795.94V3475.79C547.279 3441.89 569.548 3414.42 597.012 3414.42Z" fill="#263238"/>
<path opacity="0.2" d="M597.012 3414.42H1098.8C1126.27 3414.42 1148.53 3441.89 1148.53 3475.78V3795.94C1148.53 3829.83 1126.26 3857.3 1098.8 3857.3H597.012C569.548 3857.3 547.279 3829.83 547.279 3795.94V3475.79C547.279 3441.89 569.548 3414.42 597.012 3414.42Z" fill="white"/>
<path d="M977.803 3864.16C552.734 3864.16 532.14 3504.49 532.14 3500.68L549.436 3459.01C550.157 3472.35 583.623 3825.79 978.104 3825.79C1140.49 3825.79 1280.63 3825.79 1294.84 3787.68C1307.3 3754.01 1246.45 3667.5 1148.83 3528.89V3475.28C1273.22 3652 1343.65 3747.03 1322.95 3803.06C1301.13 3861.88 1207.22 3864.16 977.803 3864.16Z" fill="#263238"/>
<path d="M4583.79 3577.95H4544.6V3737.02H4583.79V3577.95Z" fill="#263238"/>
<path d="M4563.68 3603.49C4502.69 3603.51 4442.65 3584.91 4388.9 3549.34L4407.45 3506.71C4569.32 3613.44 4770.66 3538.05 4857.16 3338.33C4899.27 3241.11 4907.88 3127.06 4881.03 3021.91C4870.52 2980.26 4854.59 2940.98 4833.88 2905.62C4804.23 2854.84 4765.59 2813.05 4720.88 2783.45L4739.36 2740.82C4759.98 2754.49 4779.53 2770.49 4797.75 2788.61C4823.5 2814.28 4846.34 2844.1 4865.68 2877.26C4888.85 2916.79 4906.66 2960.72 4918.39 3007.32C4980.11 3248.8 4871.48 3506.28 4675.77 3582.43C4639.5 3596.54 4601.7 3603.7 4563.67 3603.66V3603.49H4563.68Z" fill="#263238"/>
<g opacity="0.3">
<path d="M4563.68 3603.49C4502.69 3603.51 4442.65 3584.91 4388.9 3549.34L4407.45 3506.71C4569.32 3613.44 4770.66 3538.05 4857.16 3338.33C4899.27 3241.11 4907.88 3127.06 4881.03 3021.91C4870.52 2980.26 4854.59 2940.98 4833.88 2905.62C4804.23 2854.84 4765.59 2813.05 4720.88 2783.45L4739.36 2740.82C4759.98 2754.49 4779.53 2770.49 4797.75 2788.61C4823.5 2814.28 4846.34 2844.1 4865.68 2877.26C4888.85 2916.79 4906.66 2960.72 4918.39 3007.32C4980.11 3248.8 4871.48 3506.28 4675.77 3582.43C4639.5 3596.54 4601.7 3603.7 4563.67 3603.66V3603.49H4563.68Z" fill="white"/>
</g>
<path d="M4376.3 3589.63C4374.67 3589.66 4373.07 3589.16 4371.66 3588.18C4367.02 3585.03 4365.25 3577.88 4367.68 3572.07L4743.49 2707.08C4746.03 2701.18 4751.97 2698.95 4756.74 2702.08C4761.52 2705.22 4763.33 2712.55 4760.79 2718.44L4384.92 3583.11C4383.23 3587.08 4379.92 3589.58 4376.3 3589.63Z" fill="#263238"/>
<g opacity="0.4">
<path d="M4376.3 3589.63C4374.67 3589.66 4373.07 3589.16 4371.66 3588.18C4367.02 3585.03 4365.25 3577.88 4367.68 3572.07L4743.49 2707.08C4746.03 2701.18 4751.97 2698.95 4756.74 2702.08C4761.52 2705.22 4763.33 2712.55 4760.79 2718.44L4384.92 3583.11C4383.23 3587.08 4379.92 3589.58 4376.3 3589.63Z" fill="white"/>
</g>
<path d="M4492.55 3725.26H4635.85C4645.44 3725.26 4653.22 3734.86 4653.22 3746.69V3786.18H4475.24V3746.69C4475.24 3734.89 4482.98 3725.3 4492.55 3725.26Z" fill="#263238"/>
<path d="M4578.9 2791.93C4736.97 2801.93 4858.54 2968.15 4850.43 3163.18C4842.32 3358.21 4707.61 3508.21 4549.53 3498.21C4391.46 3488.2 4269.89 3321.98 4278 3126.95V3126.92C4286.12 2931.9 4420.83 2781.92 4578.9 2791.93Z" fill="#EBB373"/>
<path opacity="0.2" d="M4850.4 3163.18C4842.34 3358.04 4707.77 3507.94 4549.84 3497.98C4391.9 3488.03 4270.42 3321.99 4278.48 3127.14C4286.55 2932.28 4421.12 2782.38 4579.05 2792.34C4604.46 2793.93 4629.57 2799.71 4653.75 2809.49C4682.74 2821.18 4710 2838.6 4734.48 2861.07C4811.78 2931.36 4855.33 3044.85 4850.4 3163.18Z" fill="white"/>
<path opacity="0.5" d="M4731.14 2857.84C4730.71 2857.57 4730.29 2857.25 4729.9 2856.88C4729.1 2856.02 4728.23 2855.3 4727.29 2854.7C4715.4 2846.64 4718.73 2875.09 4707.7 2881.53C4696.66 2887.98 4677.19 2876.38 4679.55 2868C4681.9 2859.62 4659.56 2836.32 4653.42 2832.62C4643.48 2828.21 4632.52 2834.59 4628.94 2846.86C4628.2 2849.43 4627.82 2852.13 4627.82 2854.85C4626.9 2879.03 4637.68 2893.37 4634.67 2900.71C4631.67 2908.04 4631.73 2910.3 4611.94 2921.98C4592.15 2933.66 4577.85 2918.76 4565.89 2932.05C4553.94 2945.35 4569.42 2952.76 4564.65 2985C4559.88 3017.23 4552.83 2994.11 4538.53 2997.57C4524.22 3001.03 4532.38 2979.76 4534.21 2967.35C4536.04 2954.94 4521.15 2951.23 4514.62 2950.27C4508.09 2949.3 4491.76 2946.88 4493.85 2921.9C4495.94 2896.92 4494.89 2873.55 4467.13 2875.49C4452.83 2876.62 4445.06 2851.31 4441.01 2825.85C4367.74 2868.93 4312.65 2948.23 4289.35 3044.16C4290.85 3043.75 4292.16 3046.33 4294.25 3052.78C4300.79 3072.93 4306.86 3093.07 4315.16 3105.32C4322.62 3115.17 4325.13 3129.27 4321.69 3142.07C4318.23 3151.98 4301.37 3158.18 4301.05 3165.03C4300.72 3171.88 4284.92 3181.14 4282.44 3187.43C4282.01 3188.87 4280.87 3189.78 4279.63 3189.69C4289.61 3286.75 4331.84 3374.32 4396.22 3431.45C4403.34 3408.56 4415.81 3390.43 4424.17 3389.86C4441.68 3388.73 4495.69 3378.18 4475.84 3348.76C4455.99 3319.35 4434.75 3292.35 4434.75 3292.35C4438.91 3284.6 4443.58 3277.3 4448.73 3270.51C4451.93 3268.01 4441.55 3260.68 4459.77 3258.26C4477.99 3255.84 4479.36 3255.68 4471.72 3244.88C4464.08 3234.08 4451.48 3242.3 4459.84 3228.77C4468.2 3215.23 4477.34 3204.59 4486.36 3219.58C4495.37 3234.57 4489.89 3242.55 4492.89 3246.98C4495.89 3251.41 4522.87 3244.56 4522.87 3244.56C4522.87 3244.56 4529.86 3256.57 4526.85 3259.23C4521.9 3266.36 4517.39 3273.93 4513.33 3281.88C4511.15 3289.4 4507.6 3296.21 4502.95 3301.78C4497.46 3305.73 4517.97 3331.44 4524.11 3335.39C4530.25 3339.33 4532.79 3342.56 4538.09 3340.86C4543.37 3339.17 4553.63 3325.55 4557.36 3321.44C4561.08 3317.33 4583.48 3327.4 4583.48 3327.4C4591.89 3333.42 4599.79 3340.47 4607.06 3348.43C4614.51 3357.55 4626.05 3359.15 4634.95 3352.3C4639.59 3347.14 4639.33 3333.12 4648.01 3337.96C4656.7 3342.8 4659.64 3347.79 4665.65 3373.83C4671.65 3399.86 4707.38 3438.05 4702.94 3454.17C4729.36 3436.22 4753.28 3413.18 4773.81 3385.91C4748.54 3375.52 4739.12 3363.51 4735.34 3356.66C4730.44 3347.71 4733.31 3347.63 4736.06 3332.48C4738.8 3317.33 4761.86 3308.31 4765.58 3304.2C4769.31 3300.08 4787.26 3272.53 4796.08 3269.63C4804.9 3266.72 4804.25 3252.22 4804.25 3252.22C4804.25 3252.22 4805.88 3256 4809.47 3246.41C4813.07 3236.82 4809.14 3226.99 4821.03 3213.69C4828.71 3206.45 4837.66 3201.53 4847.16 3199.35C4848.72 3187.2 4849.75 3174.97 4850.23 3162.68C4851.15 3141.16 4850.45 3119.58 4848.14 3098.22L4817.04 3112.8C4809.76 3112.96 4802.48 3112.09 4795.36 3110.23C4791.96 3107.81 4775.76 3094.92 4763.22 3102.81C4750.68 3110.71 4749.44 3097.58 4725.92 3092.82C4702.41 3088.07 4737.49 3047.04 4742.97 3040.92C4748.45 3034.79 4749.5 3038.01 4765.37 3028.27C4781.24 3018.51 4778.43 3003.37 4778.43 3003.37C4768.81 2986.15 4757.51 2970.45 4744.8 2956.63C4729.38 2941.63 4751.33 2940.11 4789.54 2926.49C4772.81 2900.3 4753.15 2877.19 4731.14 2857.84ZM4626.64 3305.09C4621.15 3315.32 4613.58 3303.08 4613.58 3303.08C4591.31 3295.02 4589.16 3272.7 4596.73 3264.24C4604.31 3255.78 4608.03 3226.93 4619.92 3238.44C4629.5 3247.26 4639.51 3255.33 4649.9 3262.62C4649.9 3262.62 4662.96 3221.04 4663.54 3259.72C4664.13 3298.4 4681.96 3286.63 4663.94 3298.48C4645.91 3310.32 4632.26 3294.6 4626.77 3304.84L4626.64 3305.09ZM4713.71 3315.57C4713.81 3325.44 4712.91 3335.3 4711.03 3344.9L4694.31 3355.46C4681.84 3342.64 4686.67 3323.22 4693.46 3321.45C4700.25 3319.68 4712.92 3304.2 4713.9 3315.32L4713.71 3315.57ZM4683.07 3016.76C4687.45 3027.32 4674.12 3034.17 4659.36 3060.84C4644.6 3087.51 4635.52 3065.76 4635.52 3065.76C4635.52 3065.76 4605.61 3036.26 4615.34 3023.37C4625.07 3010.48 4617.75 2993.47 4632.12 2983.64C4641.07 2977.52 4649.95 2982.84 4658.25 2994.2C4666.55 3005.56 4678.89 3006.05 4683.2 3016.53L4683.07 3016.76Z" fill="white"/>
<path opacity="0.2" d="M4653.75 2809.49C4657.87 2915.86 4630.23 3030.7 4569.63 3129.34C4502.55 3238.53 4409.02 3305.09 4315.81 3321.86C4236.95 3152.42 4284.34 2936.2 4421.66 2838.9C4492.14 2788.95 4576.5 2778.26 4653.75 2809.49Z" fill="white"/>
<g opacity="0.3">
<path d="M4492.55 3725.26H4635.85C4645.44 3725.26 4653.22 3734.86 4653.22 3746.69V3786.18H4475.24V3746.69C4475.24 3734.89 4482.98 3725.3 4492.55 3725.26Z" fill="white"/>
</g>
<path d="M4415.22 3774.57H4713.18C4724.36 3774.57 4733.42 3785.75 4733.42 3799.55V3840.57H4394.97V3799.55C4394.97 3785.76 4404.04 3774.57 4415.22 3774.57Z" fill="#263238"/>
<g opacity="0.4">
<path d="M4415.22 3774.57H4713.18C4724.36 3774.57 4733.42 3785.75 4733.42 3799.55V3840.57H4394.97V3799.55C4394.97 3785.76 4404.04 3774.57 4415.22 3774.57Z" fill="white"/>
</g>
<path d="M4419.02 1465.46C4476.12 1561.08 4459.59 1695.69 4382.1 1766.15C4322.28 1820.53 4243.7 1820.57 4184.67 1773.86L4134.24 1791.19L4140.24 1723.35C4139.65 1722.4 4138.98 1721.55 4138.41 1720.59C4081.31 1624.98 4097.83 1490.37 4175.33 1419.91C4252.81 1349.46 4361.92 1369.85 4419.02 1465.46Z" fill="#EBB373"/>
<path opacity="0.7" d="M4419.02 1465.46C4476.12 1561.08 4459.59 1695.69 4382.1 1766.15C4322.28 1820.53 4243.7 1820.57 4184.67 1773.86L4134.24 1791.19L4140.24 1723.35C4139.65 1722.4 4138.98 1721.55 4138.41 1720.59C4081.31 1624.98 4097.83 1490.37 4175.33 1419.91C4252.81 1349.46 4361.92 1369.85 4419.02 1465.46Z" fill="white"/>
<path d="M4430.31 1444.53C4429.75 1444.53 4429.2 1444.2 4428.86 1443.59C4398.29 1388.12 4344.07 1352.96 4289.71 1352.96C4288.22 1352.96 4286.73 1352.99 4285.23 1353.04C4284.39 1353.13 4283.46 1352.13 4283.43 1350.94C4283.4 1349.75 4284.17 1348.76 4285.13 1348.72C4342.04 1346.62 4399.68 1382.97 4431.76 1441.15C4432.3 1442.14 4432.09 1443.48 4431.29 1444.15C4430.99 1444.41 4430.65 1444.53 4430.31 1444.53ZM4234.45 1360.05C4242.26 1356.34 4250.84 1354.65 4259.15 1355.1C4260.11 1355.23 4260.94 1354.23 4260.98 1353.04C4261.02 1351.85 4260.28 1350.84 4259.32 1350.79C4250.45 1350.29 4241.44 1352.1 4233.19 1356.01C4232.29 1356.45 4231.84 1357.69 4232.19 1358.8C4232.45 1359.66 4233.12 1360.19 4233.82 1360.19C4234.04 1360.2 4234.25 1360.14 4234.45 1360.05Z" fill="#EBB373"/>
<path opacity="0.7" d="M4430.31 1444.53C4429.75 1444.53 4429.2 1444.2 4428.86 1443.59C4398.29 1388.12 4344.07 1352.96 4289.71 1352.96C4288.22 1352.96 4286.73 1352.99 4285.23 1353.04C4284.39 1353.13 4283.46 1352.13 4283.43 1350.94C4283.4 1349.75 4284.17 1348.76 4285.13 1348.72C4342.04 1346.62 4399.68 1382.97 4431.76 1441.15C4432.3 1442.14 4432.09 1443.48 4431.29 1444.15C4430.99 1444.41 4430.65 1444.53 4430.31 1444.53ZM4234.45 1360.05C4242.26 1356.34 4250.84 1354.65 4259.15 1355.1C4260.11 1355.23 4260.94 1354.23 4260.98 1353.04C4261.02 1351.85 4260.28 1350.84 4259.32 1350.79C4250.45 1350.29 4241.44 1352.1 4233.19 1356.01C4232.29 1356.45 4231.84 1357.69 4232.19 1358.8C4232.45 1359.66 4233.12 1360.19 4233.82 1360.19C4234.04 1360.2 4234.25 1360.14 4234.45 1360.05Z" fill="white"/>
<path d="M4239.33 1586.26C4239.33 1602.2 4228.85 1615.13 4215.93 1615.13C4203.01 1615.13 4192.54 1602.2 4192.54 1586.26C4192.54 1570.32 4203.01 1557.39 4215.93 1557.39C4228.85 1557.39 4239.33 1570.32 4239.33 1586.26Z" fill="#E4873E"/>
<path d="M4287.57 1615.13C4300.49 1615.13 4310.97 1602.2 4310.97 1586.26C4310.97 1570.32 4300.49 1557.39 4287.57 1557.39C4274.65 1557.39 4264.18 1570.32 4264.18 1586.26C4264.18 1602.2 4274.65 1615.13 4287.57 1615.13Z" fill="#E4873E"/>
<path d="M4359.21 1615.13C4372.13 1615.13 4382.61 1602.2 4382.61 1586.26C4382.61 1570.32 4372.13 1557.39 4359.21 1557.39C4346.29 1557.39 4335.81 1570.32 4335.81 1586.26C4335.81 1602.2 4346.29 1615.13 4359.21 1615.13Z" fill="#E4873E"/>
<path d="M1781.95 1284.83C1728.01 1200.36 1626.88 1184.06 1556.08 1248.42C1501.41 1298.1 1480.98 1381.29 1499.25 1455.52L1473.68 1504.56L1524.04 1515.25C1524.57 1516.11 1525.01 1517.03 1525.55 1517.88C1579.5 1602.35 1680.63 1618.65 1751.43 1554.29C1822.23 1489.93 1835.9 1369.29 1781.95 1284.83Z" fill="#EBB373"/>
<path opacity="0.7" d="M1781.95 1284.83C1728.01 1200.36 1626.88 1184.06 1556.08 1248.42C1501.41 1298.1 1480.98 1381.29 1499.25 1455.52L1473.68 1504.56L1524.04 1515.25C1524.57 1516.11 1525.01 1517.03 1525.55 1517.88C1579.5 1602.35 1680.63 1618.65 1751.43 1554.29C1822.23 1489.93 1835.9 1369.29 1781.95 1284.83Z" fill="white"/>
<path d="M1829.62 1457.46C1829.44 1457.46 1829.25 1457.43 1829.06 1457.35C1828.14 1456.98 1827.65 1455.75 1827.96 1454.62C1843.87 1396.09 1832.96 1327.59 1800.16 1280.09C1799.54 1279.18 1799.62 1277.81 1800.36 1277.04C1801.09 1276.27 1802.19 1276.37 1802.83 1277.29C1836.4 1325.91 1847.57 1396.06 1831.28 1456C1831.04 1456.89 1830.36 1457.46 1829.62 1457.46ZM1812.51 1509.22C1817.49 1501.44 1821.15 1492.29 1823.1 1482.78C1823.33 1481.62 1822.77 1480.45 1821.83 1480.16C1820.87 1479.86 1819.94 1480.57 1819.71 1481.73C1817.88 1490.65 1814.44 1499.23 1809.77 1506.54C1809.17 1507.47 1809.3 1508.84 1810.06 1509.57C1810.38 1509.88 1810.76 1510.04 1811.14 1510.04C1811.66 1510.04 1812.17 1509.76 1812.51 1509.22Z" fill="#EBB373"/>
<path opacity="0.7" d="M1829.62 1457.46C1829.44 1457.46 1829.25 1457.43 1829.06 1457.35C1828.14 1456.98 1827.65 1455.75 1827.96 1454.62C1843.87 1396.09 1832.96 1327.59 1800.16 1280.09C1799.54 1279.18 1799.62 1277.81 1800.36 1277.04C1801.09 1276.27 1802.19 1276.37 1802.83 1277.29C1836.4 1325.91 1847.57 1396.06 1831.28 1456C1831.04 1456.89 1830.36 1457.46 1829.62 1457.46ZM1812.51 1509.22C1817.49 1501.44 1821.15 1492.29 1823.1 1482.78C1823.33 1481.62 1822.77 1480.45 1821.83 1480.16C1820.87 1479.86 1819.94 1480.57 1819.71 1481.73C1817.88 1490.65 1814.44 1499.23 1809.77 1506.54C1809.17 1507.47 1809.3 1508.84 1810.06 1509.57C1810.38 1509.88 1810.76 1510.04 1811.14 1510.04C1811.66 1510.04 1812.17 1509.76 1812.51 1509.22Z" fill="white"/>
<path d="M1692.19 1397.11C1692.19 1411.36 1701.88 1422.91 1713.83 1422.91C1725.78 1422.91 1735.47 1411.35 1735.47 1397.11C1735.47 1382.85 1725.79 1371.3 1713.83 1371.3C1701.89 1371.29 1692.19 1382.85 1692.19 1397.11Z" fill="#E4873E"/>
<path d="M1625.95 1397.11C1625.95 1411.36 1635.63 1422.91 1647.59 1422.91C1659.54 1422.91 1669.23 1411.35 1669.23 1397.11C1669.23 1382.85 1659.54 1371.3 1647.59 1371.3C1635.64 1371.29 1625.95 1382.85 1625.95 1397.11Z" fill="#E4873E"/>
<path d="M1559.7 1397.11C1559.7 1411.36 1569.39 1422.91 1581.34 1422.91C1593.29 1422.91 1602.98 1411.35 1602.98 1397.11C1602.98 1382.85 1593.3 1371.3 1581.34 1371.3C1569.39 1371.29 1559.7 1382.85 1559.7 1397.11Z" fill="#E4873E"/>
<path d="M2982.62 472.141C2861.39 470.387 2761.96 590.216 2760.54 739.783C2759.76 820.947 2788.53 898.266 2838.93 950.443C2848.21 959.878 2862.37 971.291 2862.05 994.948C2862.05 995.673 2863.03 1054.14 2863.03 1054.14H3093.92C3093.92 1054.14 3094.9 993.393 3094.9 992.701C3094.9 971.87 3107.97 962.885 3117.59 953.502C3168.66 902.984 3198.73 826.908 3199.54 746.15C3200.97 596.575 3103.85 473.895 2982.62 472.141Z" fill="#EBB373"/>
<path opacity="0.4" d="M2982.62 472.141C2861.39 470.387 2761.96 590.216 2760.54 739.783C2759.76 820.947 2788.53 898.266 2838.93 950.443C2848.21 959.878 2862.37 971.291 2862.05 994.948C2862.05 995.673 2863.03 1054.14 2863.03 1054.14H3093.92C3093.92 1054.14 3094.9 993.393 3094.9 992.701C3094.9 971.87 3107.97 962.885 3117.59 953.502C3168.66 902.984 3198.73 826.908 3199.54 746.15C3200.97 596.575 3103.85 473.895 2982.62 472.141Z" fill="white"/>
<path opacity="0.2" d="M3091.74 588.859C3091.74 641.589 3041.72 684.443 2979.7 684.443C2917.68 684.443 2867.66 641.589 2867.66 588.859C2867.66 536.129 2917.68 493.18 2979.7 493.18C3041.73 493.18 3091.74 536.034 3091.74 588.859Z" fill="white"/>
<path d="M2811.26 847.014C2791.86 805.948 2784.27 757.426 2789.89 710.389C2795.51 663.362 2814.14 619.618 2842.34 587.218L2844.72 590.38C2817.1 622.115 2798.85 664.952 2793.35 711.02C2787.84 757.08 2795.27 804.609 2814.28 844.828L2811.26 847.014Z" fill="white"/>
<path d="M3043.86 996.27C3032.64 959.852 3023.32 922.372 3015.94 884.131C3004.63 896.374 2992.21 902.673 2980.22 901.912C2970.53 901.325 2960.85 896.331 2950.87 886.74C2949.38 923.832 2944.38 960.647 2935.92 996.183L2929.21 993.747C2938.02 956.724 2943.01 918.276 2944.11 879.595C2942.51 877.737 2940.87 875.759 2939.25 873.659C2914.69 842.097 2903.21 803.019 2908.54 769.107C2910.56 756.242 2916.85 743.696 2926.41 743.696C2935.11 743.964 2941.53 754.522 2944.47 773.427C2949.72 807.201 2951.96 841.614 2951.22 875.88C2961.47 887.008 2971.13 892.719 2980.56 893.298C2994.74 894.188 3006.79 883.215 3014.1 874.463C3008.74 845.32 3004.5 815.754 3001.41 785.912C3000.29 775.12 2999.45 764.579 3001.36 754.332C3003.7 741.77 3010.26 732.318 3018.07 730.261C3031.62 726.633 3042.58 744.483 3046.34 763.949C3053.81 802.656 3044.4 846.789 3022.36 876.381C3022.17 876.64 3021.97 876.891 3021.78 877.141C3029.25 916.747 3038.81 955.567 3050.4 993.228L3043.86 996.27ZM2926.1 752.319C2920.97 752.319 2916.86 761.547 2915.41 770.74C2910.52 801.896 2921.32 838.132 2944.29 867.663C2944.31 867.681 2944.32 867.689 2944.33 867.706C2944.58 836.689 2942.35 805.594 2937.58 775.042C2936.76 769.772 2933.52 752.544 2926.23 752.328C2926.19 752.319 2926.14 752.319 2926.1 752.319ZM3021.42 738.443C3020.79 738.443 3020.16 738.521 3019.53 738.685C3013.66 740.232 3009.61 748.621 3008.18 756.242C3006.53 765.106 3007.32 774.809 3008.36 784.797C3011.22 812.385 3015.07 839.739 3019.89 866.73C3038.18 839.601 3046.06 799.762 3039.54 765.927C3036.8 751.818 3029.47 738.443 3021.42 738.443Z" fill="#263238"/>
<path d="M3109.11 1071.33H2849.03C2842.83 1071.33 2837.8 1065.13 2837.8 1057.48V1050.81C2837.8 1043.16 2842.83 1036.96 2849.03 1036.96H3109.11C3115.32 1036.96 3120.35 1043.16 3120.35 1050.81V1057.48C3120.35 1065.13 3115.32 1071.33 3109.11 1071.33Z" fill="#263238"/>
<path opacity="0.3" d="M3109.11 1071.33H2849.03C2842.83 1071.33 2837.8 1065.13 2837.8 1057.48V1050.81C2837.8 1043.16 2842.83 1036.96 2849.03 1036.96H3109.11C3115.32 1036.96 3120.35 1043.16 3120.35 1050.81V1057.48C3120.35 1065.13 3115.32 1071.33 3109.11 1071.33Z" fill="white"/>
<path d="M3104.53 1101.5H2853.61C2847.41 1101.5 2842.38 1095.3 2842.38 1087.65V1082.09C2842.38 1074.44 2847.41 1068.23 2853.61 1068.23H3104.53C3110.74 1068.23 3115.77 1074.44 3115.77 1082.09V1087.64C3115.77 1095.3 3110.74 1101.5 3104.53 1101.5Z" fill="#263238"/>
<path opacity="0.3" d="M3104.53 1101.5H2853.61C2847.41 1101.5 2842.38 1095.3 2842.38 1087.65V1082.09C2842.38 1074.44 2847.41 1068.23 2853.61 1068.23H3104.53C3110.74 1068.23 3115.77 1074.44 3115.77 1082.09V1087.64C3115.77 1095.3 3110.74 1101.5 3104.53 1101.5Z" fill="white"/>
<path d="M2892.37 1148.95C2909.69 1188.03 2946.13 1229.21 2982.17 1226.59C3018.21 1223.96 3052.02 1186.18 3065.5 1144.85L2892.37 1148.95Z" fill="#263238"/>
<path d="M3087.85 1161.49H2870.31C2864.1 1161.49 2859.08 1155.29 2859.08 1147.63V1142.08C2859.08 1134.42 2864.1 1128.22 2870.31 1128.22H3087.85C3094.05 1128.22 3099.08 1134.42 3099.08 1142.08V1147.63C3099.08 1155.29 3094.05 1161.49 3087.85 1161.49Z" fill="#263238"/>
<path opacity="0.3" d="M3087.85 1161.49H2870.31C2864.1 1161.49 2859.08 1155.29 2859.08 1147.63V1142.08C2859.08 1134.42 2864.1 1128.22 2870.31 1128.22H3087.85C3094.05 1128.22 3099.08 1134.42 3099.08 1142.08V1147.63C3099.08 1155.29 3094.05 1161.49 3087.85 1161.49Z" fill="white"/>
<path d="M3100.84 1130.98H2857.31C2851.11 1130.98 2846.08 1124.77 2846.08 1117.12V1111.56C2846.08 1103.91 2851.11 1097.7 2857.31 1097.7H3100.84C3107.05 1097.7 3112.08 1103.91 3112.08 1111.56V1117.12C3112.08 1124.77 3107.05 1130.98 3100.84 1130.98Z" fill="#263238"/>
<path opacity="0.3" d="M3100.84 1130.98H2857.31C2851.11 1130.98 2846.08 1124.77 2846.08 1117.12V1111.56C2846.08 1103.91 2851.11 1097.7 2857.31 1097.7H3100.84C3107.05 1097.7 3112.08 1103.91 3112.08 1111.56V1117.12C3112.08 1124.77 3107.05 1130.98 3100.84 1130.98Z" fill="white"/>
<path d="M2858.24 373.922C2874.92 394.511 2891.6 415.091 2908.29 435.681C2910.69 438.635 2914.4 434.048 2912 431.101C2895.32 410.512 2878.64 389.932 2861.95 369.343C2859.56 366.388 2855.84 370.967 2858.24 373.922Z" fill="#263238"/>
<path d="M2988.73 411.402C2988.73 372.453 2988.73 333.513 2988.73 294.563C2988.73 290.39 2983.48 290.39 2983.48 294.563C2983.48 333.513 2983.48 372.453 2983.48 411.402C2983.48 415.567 2988.73 415.575 2988.73 411.402Z" fill="#263238"/>
<path d="M3058.16 440.692C3076.19 418.435 3094.23 396.179 3112.27 373.922C3114.67 370.967 3110.95 366.388 3108.56 369.343C3090.52 391.599 3072.48 413.856 3054.44 436.113C3052.05 439.059 3055.76 443.638 3058.16 440.692Z" fill="#263238"/>
<path d="M4148.46 3441.52H1102.4V3843.84H4148.46V3441.52Z" fill="#EBB373"/>
<path d="M2148.96 3483.6H1102.4V3801.77H2148.96V3483.6Z" fill="white"/>
<path d="M1102.4 3562C1420.71 3557.79 1777.82 3557.75 2096.14 3562C1777.82 3566.26 1420.71 3566.22 1102.4 3562Z" fill="#263238"/>
<path d="M1102.4 3599.74C1420.71 3595.53 1777.82 3595.49 2096.14 3599.74C1777.82 3603.99 1420.71 3603.96 1102.4 3599.74Z" fill="#263238"/>
<path d="M1102.4 3637.47C1420.71 3633.26 1777.82 3633.22 2096.14 3637.47C1777.82 3641.73 1420.71 3641.69 1102.4 3637.47Z" fill="#263238"/>
<path d="M1102.4 3675.21C1420.71 3671 1777.82 3670.96 2096.14 3675.21C1777.82 3679.47 1420.71 3679.43 1102.4 3675.21Z" fill="#263238"/>
<path d="M1102.4 3712.95C1420.71 3708.74 1777.82 3708.7 2096.14 3712.95C1777.82 3717.2 1420.71 3717.17 1102.4 3712.95Z" fill="#263238"/>
<path d="M1102.4 3750.68C1420.71 3746.47 1777.82 3746.43 2096.14 3750.68C1777.82 3754.94 1420.71 3754.9 1102.4 3750.68Z" fill="#263238"/>
<path d="M1102.4 3524.26C1420.71 3520.05 1777.82 3520.01 2096.14 3524.26C1777.82 3528.52 1420.71 3528.48 1102.4 3524.26Z" fill="#263238"/>
<path opacity="0.3" d="M2509.83 3441.52H2416.4V3843.84H2509.83V3441.52Z" fill="white"/>
<path opacity="0.3" d="M3934.68 3441.52H3841.25V3843.84H3934.68V3441.52Z" fill="white"/>
<path opacity="0.2" d="M2208.26 3441.52H1102.4V3843.84H2208.26V3441.52Z" fill="black"/>
<path d="M3332.17 2592.33H1562.2V2878.95H3332.17V2592.33Z" fill="#EBB373"/>
<path d="M2307.79 2622.31H1562.2V2848.99H2307.79V2622.31Z" fill="white"/>
<path d="M1562.2 2678.17C1788.96 2673.95 2043.4 2673.92 2270.16 2678.17C2043.39 2682.42 1788.96 2682.38 1562.2 2678.17Z" fill="#263238"/>
<path d="M1562.2 2705.05C1788.96 2700.84 2043.4 2700.8 2270.16 2705.05C2043.39 2709.31 1788.96 2709.27 1562.2 2705.05Z" fill="#263238"/>
<path d="M1562.2 2731.93C1788.96 2727.72 2043.4 2727.68 2270.16 2731.93C2043.39 2736.19 1788.96 2736.15 1562.2 2731.93Z" fill="#263238"/>
<path d="M1562.2 2758.82C1788.96 2754.6 2043.4 2754.57 2270.16 2758.82C2043.39 2763.07 1788.96 2763.04 1562.2 2758.82Z" fill="#263238"/>
<path d="M1562.2 2785.71C1788.96 2781.49 2043.4 2781.46 2270.16 2785.71C2043.39 2789.96 1788.96 2789.92 1562.2 2785.71Z" fill="#263238"/>
<path d="M1562.2 2812.59C1788.96 2808.37 2043.4 2808.34 2270.16 2812.59C2043.39 2816.84 1788.96 2816.8 1562.2 2812.59Z" fill="#263238"/>
<path d="M1562.2 2651.28C1788.96 2647.06 2043.4 2647.03 2270.16 2651.28C2043.39 2655.54 1788.96 2655.5 1562.2 2651.28Z" fill="#263238"/>
<path opacity="0.3" d="M3260.25 2592.33H3193.69V2878.95H3260.25V2592.33Z" fill="black"/>
<path opacity="0.3" d="M2552.4 2592.33H2485.83V2878.95H2552.4V2592.33Z" fill="black"/>
<path opacity="0.2" d="M2350.04 2592.33H1562.2V2878.95H2350.04V2592.33Z" fill="black"/>
<path opacity="0.3" d="M3126.49 2693.53H2611.55V2777.44H3126.49V2693.53Z" fill="black"/>
<path d="M3400.94 3272.89H916.502V3441.52H3400.94V3272.89Z" fill="#263238"/>
<path d="M1960.36 3294.67H916.502V3419.74H1960.36V3294.67Z" fill="white"/>
<path d="M923.666 3319.47C1241.98 3315.25 1599.09 3315.22 1917.4 3319.47C1599.09 3323.72 1241.98 3323.68 923.666 3319.47Z" fill="#263238"/>
<path d="M923.666 3357.2C1241.98 3352.99 1599.09 3352.95 1917.4 3357.2C1599.09 3361.45 1241.98 3361.42 923.666 3357.2Z" fill="#263238"/>
<path d="M923.666 3394.94C1241.98 3390.73 1599.09 3390.69 1917.4 3394.94C1599.09 3399.19 1241.98 3399.16 923.666 3394.94Z" fill="#263238"/>
<path opacity="0.3" d="M2256.98 3272.89H2230.75V3441.52H2256.98V3272.89Z" fill="white"/>
<path opacity="0.3" d="M2305.86 3272.89H2279.63V3441.52H2305.86V3272.89Z" fill="white"/>
<path opacity="0.3" d="M3233.7 3272.89H3207.47V3441.52H3233.7V3272.89Z" fill="white"/>
<path opacity="0.3" d="M3282.58 3272.89H3256.34V3441.52H3282.58V3272.89Z" fill="white"/>
<path opacity="0.2" d="M1985.79 3272.81H916.397V3441.44H1985.79V3272.81Z" fill="black"/>
<path d="M3883.22 2877.46H1398.78V3046.08H3883.22V2877.46Z" fill="#263238"/>
<path d="M2442.64 2899.24H1398.78V3024.3H2442.64V2899.24Z" fill="white"/>
<path d="M1405.95 2924.04C1724.26 2919.82 2081.37 2919.78 2399.68 2924.04C2081.37 2928.29 1724.26 2928.25 1405.95 2924.04Z" fill="#263238"/>
<path d="M1405.95 2961.77C1724.26 2957.56 2081.37 2957.52 2399.68 2961.77C2081.37 2966.03 1724.26 2965.99 1405.95 2961.77Z" fill="#263238"/>
<path d="M1405.95 2999.51C1724.26 2995.29 2081.37 2995.25 2399.68 2999.51C2081.37 3003.77 1724.26 3003.72 1405.95 2999.51Z" fill="#263238"/>
<path opacity="0.3" d="M2739.26 2877.46H2713.03V3046.08H2739.26V2877.46Z" fill="white"/>
<path opacity="0.3" d="M2788.13 2877.46H2761.9V3046.08H2788.13V2877.46Z" fill="white"/>
<path opacity="0.3" d="M3715.98 2877.46H3689.75V3046.08H3715.98V2877.46Z" fill="white"/>
<path opacity="0.3" d="M3764.85 2877.46H3738.62V3046.08H3764.85V2877.46Z" fill="white"/>
<path opacity="0.2" d="M2468.07 2877.38H1398.68V3046.01H2468.07V2877.38Z" fill="black"/>
<path d="M1019.14 3274.55L3503.57 3274.55V3044.45L1019.14 3044.45V3274.55Z" fill="#EBB373"/>
<path opacity="0.4" d="M1019.14 3274.55L3503.57 3274.55V3044.45L1019.14 3044.45V3274.55Z" fill="white"/>
<path d="M2459.7 3252.77H3503.56V3070.93H2459.7V3252.77Z" fill="white"/>
<path d="M3496.4 3152.49C3178.09 3156.71 2820.98 3156.75 2502.67 3152.49C2820.98 3148.24 3178.09 3148.28 3496.4 3152.49Z" fill="#263238"/>
<path d="M3496.4 3190.23C3178.09 3194.45 2820.98 3194.48 2502.67 3190.23C2820.98 3185.98 3178.09 3186.02 3496.4 3190.23Z" fill="#263238"/>
<path d="M3496.4 3227.97C3178.09 3232.19 2820.98 3232.22 2502.67 3227.97C2820.98 3223.72 3178.09 3223.76 3496.4 3227.97Z" fill="#263238"/>
<path d="M3496.4 3113.38C3178.09 3117.6 2820.98 3117.63 2502.67 3113.38C2820.98 3109.13 3178.09 3109.16 3496.4 3113.38Z" fill="#263238"/>
<path opacity="0.2" d="M2434.28 3274.44H3503.68V3044.35H2434.28V3274.44Z" fill="black"/>
<path opacity="0.4" d="M2221.39 3113.38H1241.24V3190.23H2221.39V3113.38Z" fill="white"/>
<path d="M3906.3 3052.01C3906.3 3052.01 3177.19 2869.04 3147.19 3056.37C3104.38 3323.79 3631.09 3483.48 3909.11 3462.42C4187.12 3441.36 3906.3 3052.01 3906.3 3052.01Z" fill="#263238"/>
<path opacity="0.2" d="M3906.3 3052.01C3906.3 3052.01 3177.19 2869.04 3147.19 3056.37C3104.38 3323.79 3631.09 3483.48 3909.11 3462.42C4187.12 3441.36 3906.3 3052.01 3906.3 3052.01Z" fill="black"/>
<path opacity="0.2" d="M3386.16 3105.16L3732.59 3359.43L3689.11 3440.66C3689.11 3440.66 3714.05 3483.49 3756.36 3347.58L3541.86 3183.64C3541.86 3183.64 3607.52 3173.09 3605.56 3160.44C3602.26 3139.68 3456.65 3105.26 3390.25 3089.79C3386.81 3088.39 3383.11 3090.71 3381.97 3094.95C3380.85 3099.19 3382.72 3103.76 3386.16 3105.16Z" fill="black"/>
<path opacity="0.2" d="M3744.2 3328.93L3688.03 3449.01C3761.15 3462.04 3835.2 3466.53 3909.11 3462.42C3933.41 3461.35 3957.35 3455.09 3979.79 3443.95L3999.39 3396.44L3952.12 3287.31L3744.2 3328.93Z" fill="black"/>
<path d="M3630.5 3286.13L3784.58 3398.98L3759.63 3490.54L3579.7 3398.54L3630.5 3286.13Z" fill="#EBB373"/>
<path d="M3868.55 3426.29L3855.26 3491.97C3855.26 3491.97 3844.18 3495.28 3841.04 3509.1C3839.28 3516.88 3844.37 3537.93 3844.37 3537.93L3808.91 3718.89C3808.69 3718.83 3798.86 3715.93 3794.9 3712.62C3790.07 3708.58 3786.15 3704.42 3782.97 3700.16C3771.86 3685.24 3770.14 3663.09 3769.35 3646.67C3768.02 3619.15 3753.28 3539.15 3753.28 3539.15C3753.28 3539.15 3747.88 3518.36 3729.5 3500.56C3719.25 3490.62 3714.31 3477.79 3715.06 3469.71C3716.55 3453.23 3725.96 3446.71 3738.44 3448.11L3752.95 3449.76C3763.05 3439.89 3765.83 3423.73 3758.93 3408.5C3758.93 3408.5 3749.45 3369.7 3762.89 3375.8C3770.57 3379.28 3804.39 3396.44 3831.45 3409.02C3837.75 3411.95 3843.72 3414.72 3848.95 3417.15V3417.16C3860.58 3422.56 3868.55 3426.29 3868.55 3426.29Z" fill="#263238"/>
<path d="M3759.88 3581.87C3759.44 3580.87 3759.63 3579.6 3760.3 3578.81C3763.34 3575.15 3767.13 3572.47 3771.46 3571.19C3773.74 3570.51 3774.9 3575.02 3772.6 3575.71C3768.74 3576.85 3765.4 3579.19 3762.74 3582.38C3761.85 3583.44 3760.48 3583.24 3759.9 3581.91C3759.89 3581.89 3759.88 3581.87 3759.88 3581.87Z" fill="#EBB373"/>
<path d="M3756.53 3566.08C3756.1 3565.09 3756.29 3563.82 3756.95 3563.02C3759.99 3559.37 3763.78 3556.68 3768.11 3555.4C3770.4 3554.73 3771.55 3559.24 3769.25 3559.92C3765.4 3561.06 3762.06 3563.4 3759.4 3566.59C3758.51 3567.65 3757.13 3567.46 3756.56 3566.13C3756.55 3566.12 3756.53 3566.1 3756.53 3566.08Z" fill="#EBB373"/>
<path d="M3753.67 3549.99C3753.24 3549 3753.43 3547.73 3754.09 3546.94C3757.13 3543.28 3760.92 3540.59 3765.26 3539.32C3767.54 3538.64 3768.7 3543.16 3766.39 3543.83C3762.54 3544.97 3759.2 3547.32 3756.54 3550.5C3755.65 3551.57 3754.28 3551.37 3753.7 3550.04C3753.69 3550.02 3753.68 3550.01 3753.67 3549.99Z" fill="#EBB373"/>
<path opacity="0.2" d="M3848.95 3417.15V3417.17C3860.57 3422.56 3868.55 3426.29 3868.55 3426.29L3855.26 3491.97C3855.26 3491.97 3844.18 3495.28 3841.04 3509.1C3839.27 3516.88 3844.37 3537.93 3844.37 3537.93L3808.91 3718.89C3808.69 3718.82 3798.86 3715.93 3794.9 3712.62C3792.69 3710.76 3790.7 3708.88 3788.86 3706.97L3846.04 3415.8C3846.99 3416.24 3848.04 3416.72 3848.95 3417.15Z" fill="white"/>
<path d="M3733.14 3563.68C3729.4 3563.68 3725.87 3562.45 3723.04 3560.11C3720.78 3558.25 3718.56 3554.93 3719.11 3551.2C3719.63 3547.55 3722.44 3545.48 3724.68 3544.37C3729.25 3542.11 3734.63 3541.56 3740.65 3542.66C3745.91 3543.64 3751.02 3545.74 3755.96 3547.79L3757.53 3548.44L3756.24 3549.69C3753.31 3552.45 3743.32 3561.58 3737.95 3563.03C3736.33 3563.46 3734.71 3563.68 3733.14 3563.68ZM3734.89 3544.27C3731.38 3544.27 3728.18 3544.97 3725.32 3546.37C3723.82 3547.11 3721.24 3548.77 3720.82 3551.58C3720.43 3554.3 3722.21 3556.84 3724 3558.32C3727.65 3561.34 3732.61 3562.27 3737.56 3560.92C3741.98 3559.71 3750.28 3552.45 3753.84 3549.19C3749.45 3547.39 3744.94 3545.64 3740.38 3544.79C3738.47 3544.44 3736.64 3544.27 3734.89 3544.27Z" fill="#EBB373"/>
<path d="M3756.65 3550.15L3755.32 3548.93L3755.84 3548.06L3755.31 3548.91C3751.13 3545.07 3746.81 3541.09 3743.17 3536.3C3739 3530.81 3736.31 3525.03 3735.21 3519.12C3734.67 3516.2 3734.47 3512.19 3736.59 3509.59C3738.78 3506.92 3742.25 3507.26 3744.77 3508.5C3749.28 3510.68 3753.09 3515.59 3755.2 3521.97C3757.27 3528.24 3756.89 3543.57 3756.72 3548.12L3756.65 3550.15ZM3740.98 3509.72C3739.79 3509.72 3738.66 3510.1 3737.83 3511.11C3736.2 3513.12 3736.56 3516.69 3736.92 3518.63C3737.95 3524.18 3740.5 3529.62 3744.44 3534.81C3747.61 3538.97 3751.34 3542.55 3755.05 3545.97C3755.29 3537.22 3755.02 3527.08 3753.59 3522.77C3751.66 3516.94 3748.21 3512.47 3744.14 3510.49C3743.18 3510.03 3742.06 3509.72 3740.98 3509.72Z" fill="#EBB373"/>
<path d="M3593.54 2494.45C3593.54 2494.45 3574.04 2785.89 3567.35 2801.73C3544.71 2855.3 3388.55 2951.42 3388.55 2951.42L3307.32 2933.49L3250.9 2995.19L3289.92 3030.67L3334.17 3008.18C3358.72 3012.66 3383.54 3014.44 3408.35 3013.49C3450.05 3011.96 3657.84 2947.85 3689.74 2877.46C3721.64 2807.07 3721.2 2480.14 3721.2 2480.14L3593.54 2494.45Z" fill="#EBB373"/>
<path d="M3727.59 2603.85C3727.59 2603.85 3783.53 2346.5 3704.54 2278.5C3625.56 2210.49 3572.47 2563.45 3572.47 2563.45L3727.59 2603.85Z" fill="#B6864B"/>
<path opacity="0.5" d="M3727.59 2603.85C3727.59 2603.85 3783.53 2346.5 3704.54 2278.5C3625.56 2210.49 3572.47 2563.45 3572.47 2563.45L3727.59 2603.85Z" fill="white"/>
<path d="M3689.78 3072.23L3682.3 2734.1L3677.13 2270.94L3838.01 2221.72L3950.68 2220.4L4141.24 2293.62L4147.69 2407.08C4147.69 2407.08 4141.82 2929.37 4143.23 2945.05C4144.95 2964.28 4193.32 3083.62 4193.32 3083.62C3992.12 3147.93 3687.01 3089.59 3689.78 3072.23Z" fill="#B6864B"/>
<path opacity="0.2" d="M3681.18 2591.77L3678.47 2390.07L3649.71 2583.57L3681.18 2591.77Z" fill="black"/>
<path opacity="0.2" d="M4024.72 2611.06C4019.71 2610.04 3999.24 2602.58 3999.24 2602.58L4045.73 2406.06L3973.78 2621.98L4020.64 2643.05L4024.72 2611.06Z" fill="black"/>
<path d="M4042.6 2450.5C4042.6 2450.5 4011.02 2774.42 3989.06 2805.38C3951.93 2857.71 3765.24 2999.79 3765.24 2999.79L3669.47 2962.23C3662.77 2959.78 3655.45 2961.52 3650.15 2966.83L3586.79 3030.22L3593.14 3036.43C3595.88 3039.12 3599.76 3039.53 3602.87 3037.49L3612.79 3030.94L3601.85 3044.97L3605.5 3048.55C3609.14 3052.11 3614.1 3053.26 3618.61 3051.59L3647.37 3040.94L3621.15 3063.88C3627.26 3069.88 3635.63 3071.73 3643.19 3068.77L3685.24 3052.32C3714.35 3059.43 3743.93 3063.57 3773.64 3064.68C3823.65 3066.66 4056.97 2956.44 4099.14 2880.44C4141.3 2804.43 4179.23 2493.81 4179.23 2493.81L4042.6 2450.5Z" fill="#EBB373"/>
<path d="M4173.17 2660.47C4173.17 2660.47 4224.93 2366.07 4145.95 2298.06C4066.97 2230.05 3999.24 2602.58 3999.24 2602.58L4173.17 2660.47Z" fill="#B6864B"/>
<path opacity="0.5" d="M4173.17 2660.47C4173.17 2660.47 4224.93 2366.07 4145.95 2298.06C4066.97 2230.05 3999.24 2602.58 3999.24 2602.58L4173.17 2660.47Z" fill="white"/>
<path d="M3549.4 3054.97L3695.2 3049.67L3849.9 3044.05C3849.9 3044.09 3849.9 3044.13 3849.9 3044.17C3850.17 3058.33 3837.63 3070.22 3821.89 3070.72L3667.32 3076.34L3578.9 3079.56C3578.77 3079.56 3578.63 3079.56 3578.5 3079.57H3578.47L3332.4 3088.52C3316.79 3088.96 3303.97 3077.96 3303.71 3063.91L3549.4 3054.97Z" fill="#263238"/>
<path d="M3327.86 3087.24L3602.39 3077.26C3607.12 3077.04 3610.84 3073.07 3610.69 3068.38C3610.67 3067.5 3610.5 3066.63 3610.2 3065.81L3479.82 2724.81C3476.5 2715.05 3467.15 2708.64 3456.71 2708.98L3182.02 2718.96C3177.38 2719.14 3173.7 2723 3173.81 2727.6C3173.83 2728.57 3174.03 2729.51 3174.38 2730.41L3304.75 3071.42C3308.12 3081.14 3317.45 3087.52 3327.86 3087.24Z" fill="#263238"/>
<path opacity="0.7" d="M3182.02 2718.96L3456.71 2708.98C3467.15 2708.64 3476.5 2715.05 3479.82 2724.81L3605.28 3052.95L3695.2 3049.68L3849.91 3044.05C3849.91 3044.09 3849.91 3044.13 3849.91 3044.17C3850.18 3058.34 3837.64 3070.22 3821.9 3070.72L3667.33 3076.35L3578.91 3079.56C3578.78 3079.57 3578.64 3079.57 3578.5 3079.58H3578.48L3332.41 3088.53C3327.46 3088.67 3322.86 3087.56 3318.78 3085.65C3312.33 3083.24 3307.1 3078.16 3304.76 3071.42L3174.38 2730.41C3174.03 2729.51 3173.83 2728.56 3173.81 2727.6C3173.7 2723 3177.38 2719.14 3182.02 2718.96Z" fill="white"/>
<path d="M3351.39 2896.87C3357.72 2913.24 3370.01 2924.18 3378.92 2921.54C3387.83 2918.89 3389.86 2903.7 3383.7 2887.29C3377.55 2870.87 3365.12 2860.19 3356.21 2862.84C3347.3 2865.47 3344.97 2880.08 3351.39 2896.87Z" fill="white"/>
<g opacity="0.3">
<path d="M3479.82 2724.8L3605.28 3052.94L3592.56 3053.4L3456.71 2708.97C3467.15 2708.64 3476.5 2715.04 3479.82 2724.8Z" fill="black"/>
</g>
<path d="M3955.48 2244.93C3955.48 2244.93 3926.35 2173.78 3945.22 2055.93C3933.66 2049.27 3948.94 2019.77 3948.46 2007.99L3827.92 2118.88C3833.51 2155.32 3827.85 2227.49 3823.59 2258.17L3870.07 2310.28L3955.48 2244.93Z" fill="#EBB373"/>
<path opacity="0.2" d="M3831.06 2140.7L3900.97 2133.83C3889.18 2159.41 3880.9 2181.88 3829.72 2184.46C3829.72 2184.46 3829.28 2152.9 3831.06 2140.7Z" fill="black"/>
<path d="M3782.91 1789.67C3761.43 1820.91 3752.09 1911.11 3801.08 1908.24C3850.07 1905.37 3819.83 1735.97 3782.91 1789.67Z" fill="#263238"/>
<path d="M3984.52 1957.49C3957.41 2052.38 3943.68 2106.58 3892.73 2141.79C3679.4 2248.59 3702.62 1797.85 3867.57 1772.03C3951.74 1761.63 4011.62 1862.59 3984.52 1957.49Z" fill="#EBB373"/>
<path d="M4047.69 1837.16C4036.64 1744.61 3914.81 1749.27 3878.33 1765.85C3872.88 1768.33 3927.75 1830.52 3924.27 1827.41L3951.46 1850.87C3989.76 1874.8 3920.66 1950.99 3953.59 2033.64C4026.48 2022.01 4053.3 1904.66 4047.69 1837.16Z" fill="#263238"/>
<path d="M3996.85 2048.86C3975.77 2097.35 3899.31 2110.16 3919.17 2035.32C3934.79 1961.69 4027.44 1962.18 3996.85 2048.86Z" fill="#EBB373"/>
<path d="M3867.8 1946.38C3862.56 1969.77 3843.32 1962.52 3848.87 1939.47C3854.11 1916.08 3873.35 1923.32 3867.8 1946.38Z" fill="#263238"/>
<path d="M3786.52 1920.21C3781.27 1943.61 3762.03 1936.36 3767.58 1913.31C3772.83 1889.91 3792.06 1897.17 3786.52 1920.21Z" fill="#263238"/>
<path d="M3813.85 1923.83C3813.85 1923.83 3777.15 1964.03 3764.41 1981.17C3772.69 1997.52 3793.22 1998.54 3793.22 1998.54L3813.85 1923.83Z" fill="#E4873E"/>
<path d="M3896.37 1906.3C3895.02 1906.48 3893.62 1905.79 3892.75 1904.32C3882.45 1886.92 3868.1 1887.53 3867.96 1887.54C3852.39 1874.83 3884.77 1872.1 3899.04 1898.71C3900.83 1901.57 3899.25 1905.99 3896.37 1906.3Z" fill="#263238"/>
<path opacity="0.2" d="M3942.71 2034.41C3942.54 2034.41 3942.35 2034.37 3942.18 2034.31C3941.26 2033.94 3940.75 2032.72 3941.04 2031.59C3944.74 2017.26 3958.48 2003.27 3969.87 2002.23C3975.16 2001.77 3982.21 2003.59 3986.7 2014.93C3987.12 2016 3986.77 2017.29 3985.9 2017.82C3985.03 2018.34 3983.98 2017.91 3983.56 2016.83C3980.64 2009.46 3976.1 2006 3970.13 2006.55C3960.15 2007.45 3947.64 2020.26 3944.38 2032.91C3944.14 2033.82 3943.46 2034.41 3942.71 2034.41Z" fill="black"/>
<path d="M3761.98 1866.42C3759.3 1864.77 3759.22 1859.6 3761.92 1857.91C3780.79 1845.18 3796.55 1855.72 3797.3 1856.07C3801.73 1858.94 3798.09 1867.6 3793.65 1864.58C3791.59 1860.47 3776.39 1860.83 3761.98 1866.42Z" fill="#263238"/>
<path d="M4016.24 1985.21C4016.24 1985.21 3962.17 1889.94 3896.16 1845.53C3823.09 1796.36 3769.54 1810.99 3769.54 1810.99C3769.54 1810.99 3757.01 1795.86 3765.07 1787.28C3773.12 1778.71 3780.62 1786.22 3780.62 1786.22C3780.62 1786.22 3859.02 1683.15 3952.63 1716.1C4046.24 1749.06 4077.4 1820.38 4073.61 1825.56C4054.36 1851.91 4043.31 1811.03 4043.31 1811.03C4043.31 1811.03 4066.06 1848.48 4039.83 1924.98L4032.07 1954.94C4032.07 1954.92 4038.49 1989.87 4016.24 1985.21Z" fill="#263238"/>
<path opacity="0.7" d="M4016.24 1985.21C4016.24 1985.21 3962.17 1889.94 3896.16 1845.53C3823.09 1796.36 3769.54 1810.99 3769.54 1810.99C3769.54 1810.99 3757.01 1795.86 3765.07 1787.28C3773.12 1778.71 3780.62 1786.22 3780.62 1786.22C3780.62 1786.22 3859.02 1683.15 3952.63 1716.1C4046.24 1749.06 4077.4 1820.38 4073.61 1825.56C4054.36 1851.91 4043.31 1811.03 4043.31 1811.03C4043.31 1811.03 4066.06 1848.48 4039.83 1924.98L4032.07 1954.94C4032.07 1954.92 4038.49 1989.87 4016.24 1985.21Z" fill="white"/>
<path d="M3894.6 1841.24C3884.6 1837.06 3877.2 1824.73 3876.89 1811.7C3876.68 1803.13 3879.23 1794.89 3881 1786.61C3882.77 1778.32 3883.72 1769.12 3880.55 1761.5C3877.84 1754.98 3872.15 1750.52 3866.21 1750.27C3860.28 1750.01 3854.35 1753.97 3851.28 1760.24C3853.5 1755.09 3851.96 1748.45 3848.86 1744.04C3845.76 1739.65 3841.38 1736.98 3837.13 1734.42C3829.47 1729.82 3820.89 1725.11 3812.73 1728.12C3804.56 1731.14 3799.39 1741.1 3796.54 1751.01C3792.87 1763.8 3791.9 1778.12 3795.63 1790.88C3800.62 1807.95 3813.42 1820.11 3827.24 1826.31C3841.06 1832.52 3855.99 1833.62 3870.67 1834.65" fill="#263238"/>
<path opacity="0.2" d="M4046.3 1817.69C4046.3 1817.69 4035.64 1773.88 3991.76 1751.92L4046.3 1817.69Z" fill="black"/>
<path opacity="0.3" d="M4026.87 1953.07C4000.47 1889.13 3945.26 1824.59 3889.49 1792.47L3890.23 1790.51C3946.33 1822.81 4001.87 1887.75 4028.43 1952.09L4026.87 1953.07Z" fill="black"/>
<path d="M3799.44 2034.5C3805.17 2046.99 3810.17 2059.97 3814.39 2073.33C3816.38 2072.81 3818.43 2072.35 3820.4 2071.71C3847.56 2064.2 3858.2 2049.7 3861.61 2035.8C3863.18 2028.97 3863.43 2021.77 3862.33 2014.79C3861.8 2010.84 3860.81 2007 3859.41 2003.38C3846.93 2017.99 3822.12 2027.38 3808.65 2031.7C3802.78 2033.24 3799.44 2034.5 3799.44 2034.5Z" fill="#263238"/>
<path d="M3808.37 2031.47L3813.04 2042.79C3838.54 2035.66 3855.72 2026.51 3862.06 2014.55C3861.52 2010.61 3860.53 2006.77 3859.13 2003.15C3846.57 2017.9 3821.84 2027.15 3808.37 2031.47Z" fill="white"/>
<path d="M3820.11 2071.47C3847.27 2063.97 3857.91 2049.47 3861.32 2035.56C3851.04 2038.64 3841.28 2043.94 3832.5 2051.22C3826.77 2056.22 3822.43 2063.29 3820.11 2071.47Z" fill="#C15854"/>
<path d="M3482.73 3440.88L3306.75 3482.43L3276.23 3393.48L3460.37 3315.19L3482.73 3440.88Z" fill="#EBB373"/>
<path d="M3229.2 3530.68L3203.86 3470.65C3203.86 3470.65 3210.38 3459.11 3205.3 3446.19C3202.45 3438.92 3187.31 3427.32 3187.31 3427.32L3116.63 3262.84C3116.82 3262.71 3125.75 3256.83 3130.49 3256.08C3136.26 3255.15 3141.45 3255.06 3146.12 3255.65C3162.45 3257.73 3175.63 3272.91 3185.04 3284.56C3200.83 3304.07 3254.85 3351.9 3254.85 3351.9C3254.85 3351.9 3270.06 3363.04 3293.39 3361.34C3306.4 3360.39 3317 3365.96 3320.78 3372.62C3328.52 3386.18 3324.97 3398.75 3314.87 3407.92L3303.13 3418.55C3300.88 3434.2 3307.47 3448.58 3320.83 3454.33C3320.83 3454.33 3348.77 3475.62 3335.43 3482.05C3327.81 3485.72 3293.26 3500.54 3266.25 3513.26C3259.96 3516.21 3254.01 3519.03 3248.78 3521.49L3248.76 3521.47C3237.18 3526.94 3229.2 3530.68 3229.2 3530.68Z" fill="#263238"/>
<path d="M3226.97 3325.31C3227.82 3325.7 3228.37 3326.81 3228.3 3327.95C3227.98 3333.17 3226.59 3338.28 3224.04 3342.78C3222.7 3345.16 3219.4 3342.72 3220.76 3340.33C3223.03 3336.33 3224.28 3331.83 3224.56 3327.27C3224.65 3325.75 3225.79 3324.78 3226.94 3325.3C3226.94 3325.3 3226.95 3325.31 3226.97 3325.31Z" fill="#EBB373"/>
<path d="M3237.96 3334.38C3238.81 3334.77 3239.36 3335.88 3239.29 3337.01C3238.97 3342.23 3237.58 3347.34 3235.03 3351.84C3233.68 3354.22 3230.39 3351.78 3231.75 3349.39C3234.02 3345.39 3235.27 3340.9 3235.55 3336.34C3235.64 3334.81 3236.77 3333.84 3237.93 3334.37C3237.93 3334.37 3237.94 3334.38 3237.96 3334.38Z" fill="#EBB373"/>
<path d="M3248.74 3344.09C3249.6 3344.48 3250.14 3345.59 3250.07 3346.72C3249.76 3351.94 3248.36 3357.05 3245.81 3361.56C3244.47 3363.93 3241.17 3361.5 3242.54 3359.1C3244.8 3355.1 3246.05 3350.62 3246.33 3346.05C3246.42 3344.52 3247.56 3343.55 3248.71 3344.08C3248.71 3344.08 3248.73 3344.09 3248.74 3344.09Z" fill="#EBB373"/>
<path opacity="0.2" d="M3205.3 3446.18C3202.45 3438.91 3187.31 3427.32 3187.31 3427.32L3116.63 3262.84C3116.82 3262.71 3125.75 3256.82 3130.49 3256.07C3133.14 3255.65 3135.63 3255.44 3138.05 3255.35L3251.7 3520.12C3250.74 3520.57 3249.7 3521.06 3248.78 3521.49L3248.78 3521.48C3237.18 3526.95 3229.2 3530.68 3229.2 3530.68L3203.86 3470.64C3203.86 3470.64 3210.38 3459.1 3205.3 3446.18Z" fill="white"/>
<path d="M3246.7 3348.41L3246.99 3346.43C3247.71 3341.95 3250.29 3326.95 3253.52 3321.48C3256.8 3315.9 3261.44 3312.26 3266.25 3311.46C3268.91 3311.02 3272.37 3311.69 3273.98 3314.92C3275.2 3317.37 3275.02 3320.82 3273.48 3324.59C3271.26 3330.03 3267.54 3334.86 3262.45 3338.93C3257.98 3342.51 3253.02 3345.11 3248.23 3347.61L3246.7 3348.41ZM3267.77 3313.49C3267.33 3313.49 3266.89 3313.54 3266.47 3313.6C3262.14 3314.32 3257.92 3317.66 3254.93 3322.75C3252.71 3326.52 3250.49 3336.28 3249.03 3344.85C3253.28 3342.61 3257.61 3340.24 3261.48 3337.13C3266.31 3333.26 3269.82 3328.71 3271.9 3323.62C3272.64 3321.83 3273.68 3318.47 3272.47 3316.05C3271.54 3314.16 3269.61 3313.49 3267.77 3313.49Z" fill="#EBB373"/>
<path d="M3271.94 3369.11C3268.87 3369.11 3265.67 3368.17 3262.65 3366.33C3257.75 3363.35 3249.79 3351.55 3247.47 3348L3246.43 3346.42L3248.07 3346.24L3248.14 3347.32L3248.15 3346.24C3253.32 3345.69 3258.66 3345.13 3263.96 3345.75C3270.02 3346.44 3275.13 3348.57 3279.14 3352.1C3281.93 3354.55 3283.39 3357.49 3283.24 3360.37C3283.04 3364.16 3280.25 3366.72 3277.7 3367.87C3275.9 3368.71 3273.94 3369.11 3271.94 3369.11ZM3249.88 3348.22C3254.41 3354.97 3260.05 3362.34 3263.43 3364.39C3268.01 3367.18 3272.99 3367.7 3277.1 3365.86C3279.13 3364.93 3281.35 3362.99 3281.49 3360.25C3281.65 3357.4 3279.45 3355.04 3278.14 3353.88C3274.38 3350.57 3269.56 3348.56 3263.81 3347.91C3259.2 3347.39 3254.5 3347.77 3249.88 3348.22Z" fill="#EBB373"/>
<path d="M4144.83 3317.23C4181.18 3240.92 4262.52 3034.7 4086.65 3001.5C3910.78 2968.31 3334.54 3332.23 3334.54 3332.23L3374.87 3468.5L3916.3 3342.92C3916.3 3342.92 3844.79 3468.23 3934.93 3459.35C4065.87 3438.54 4096.48 3398.63 4144.83 3317.23Z" fill="#263238"/>
<path opacity="0.2" d="M3903.48 3347.08L4051.33 3283.72C4051.33 3283.72 3928.39 3382.78 3882.74 3395.68L3903.48 3347.08Z" fill="black"/>
<path d="M2825.53 1520.77L2878.46 1445.2L2932.4 1468.73L2895.61 1557.15L2825.53 1520.77Z" fill="#EEC1BB"/>
<path d="M2870.44 1438.94C2870.44 1438.94 2865.83 1404.72 2879.57 1381.58C2893.32 1358.44 2899.3 1335.45 2910.48 1319.12C2921.67 1302.79 2921.92 1331.64 2919.54 1347.03C2917.16 1362.41 2914.59 1379.88 2924.24 1380.21C2933.89 1380.55 3007.09 1332.12 3020.43 1334.47C3033.77 1336.81 3023.91 1349.21 3023.91 1349.21C3023.91 1349.21 3041.94 1338.04 3047.48 1345.65C3048.92 1347.63 3049.66 1355.1 3042.09 1361.79C3025.05 1376.82 2988 1406.08 2988 1406.08C2990.1 1404.35 3037.94 1372.25 3045.61 1368.59C3055.63 1363.82 3062.34 1367.88 3064.39 1375.14C3067.32 1385.48 3009.1 1427.78 3007.66 1431.67C3007.66 1431.67 3040.52 1405.94 3050.54 1412.77C3060.56 1419.6 3040.6 1437.19 3020.61 1448.57C3002.28 1459.01 2968.54 1485.4 2949.07 1493.78C2925.09 1504.1 2907.1 1504.39 2890.66 1483.13C2874.21 1461.87 2870.44 1438.94 2870.44 1438.94Z" fill="#EEC1BB"/>
<path opacity="0.3" d="M2980.04 1382.24C2979.75 1382.24 2979.48 1382.07 2979.31 1381.76C2979.05 1381.26 2979.16 1380.59 2979.56 1380.27C2993.07 1369.32 3007.13 1359.02 3021.35 1349.65C3021.78 1349.37 3022.31 1349.57 3022.53 1350.09C3022.76 1350.61 3022.6 1351.27 3022.17 1351.55C3008 1360.89 2993.98 1371.15 2980.52 1382.06C2980.37 1382.19 2980.2 1382.24 2980.04 1382.24Z" fill="black"/>
<path opacity="0.3" d="M2995.61 1443.78C2995.21 1443.78 2994.85 1443.44 2994.75 1442.94C2990.16 1418.12 2979.38 1394.79 2964.4 1377.25C2964.05 1376.84 2964.03 1376.15 2964.36 1375.72C2964.7 1375.29 2965.25 1375.27 2965.6 1375.68C2980.83 1393.51 2991.78 1417.23 2996.46 1442.46C2996.57 1443.04 2996.27 1443.61 2995.8 1443.75C2995.74 1443.77 2995.67 1443.78 2995.61 1443.78Z" fill="black"/>
<path opacity="0.3" d="M2907.03 1449.11C2906.73 1449.11 2906.44 1448.92 2906.27 1448.57C2906.04 1448.06 2906.17 1447.4 2906.6 1447.1C2913.73 1441.96 2919.44 1433.53 2922.28 1423.96C2925.11 1414.39 2925.15 1403.4 2922.39 1393.8C2922.23 1393.23 2922.47 1392.61 2922.92 1392.41C2923.38 1392.22 2923.88 1392.51 2924.04 1393.07C2926.94 1403.14 2926.89 1414.66 2923.92 1424.7C2920.95 1434.74 2914.96 1443.58 2907.47 1448.96C2907.33 1449.06 2907.18 1449.11 2907.03 1449.11Z" fill="black"/>
<path d="M3056.33 2749.31L3083.72 2648.19L2885.61 2511.83L2842.56 2665.28L3056.33 2749.31Z" fill="#EEC1BB"/>
<path d="M3059.28 2612.88L3044.75 2646.25C3041.45 2653.8 3041.51 2662.84 3044.5 2670.57C3057.42 2703.94 3043.06 2713.06 3013.92 2720.72C3006.87 2733.19 3017.68 2744.98 3020.54 2748.27L3083.22 2822C3088.41 2828.23 3096.73 2828.1 3101.79 2821.69C3102.69 2820.55 3103.45 2819.25 3104.04 2817.83C3121.69 2777.3 3130.04 2758.13 3152.01 2707.69L3219.21 2553.43C3237.53 2511.38 3206.98 2479.89 3196.25 2495.1C3148.38 2563.75 3105.77 2606.58 3076.92 2618.48C3071.76 2620.81 3071.36 2614.63 3059.28 2612.88Z" fill="#263238"/>
<path d="M3111.74 2554.33C3111.22 2549.46 3108.86 2545.19 3105.38 2542.81C3103.63 2541.27 3101.31 2541.1 3099.43 2542.37C3088.87 2548.85 3086.5 2601.05 3086.31 2606.96C3086.24 2607.59 3086.39 2608.22 3086.73 2608.68C3087.36 2609.55 3088.44 2609.62 3089.14 2608.84C3095.58 2599.89 3101.24 2590.13 3106.03 2579.74C3110.07 2572.24 3112.08 2563.33 3111.74 2554.33ZM3100.84 2546.68C3101.64 2546.11 3102.64 2546.22 3103.35 2546.94C3105.8 2548.79 3107.5 2551.86 3107.99 2555.36C3109.6 2568.64 3097.17 2589.88 3089.95 2600.96C3091.31 2579.54 3095.06 2550.29 3100.84 2546.68Z" fill="#EBB373"/>
<path d="M3090.1 2607.66C3091.32 2592.33 3086.07 2555 3076.62 2550.56C3074.68 2549.55 3071.75 2549.72 3068.67 2554.98C3056.58 2576.45 3085.6 2608.33 3087.01 2609.26C3087.48 2609.87 3088.2 2610.07 3088.84 2609.77C3089.13 2609.41 3089.33 2608.96 3089.41 2608.47L3090.1 2607.66ZM3071.08 2557.55C3073.28 2553.53 3074.51 2554.36 3074.96 2554.65C3080.87 2557.03 3086.42 2585.28 3086.31 2602.77C3079.78 2594.78 3064 2573.51 3070.32 2559.02L3071.08 2557.55Z" fill="#EBB373"/>
<path d="M3092.69 2643.87C3092.08 2643.87 3091.49 2643.47 3091.17 2642.77C3085.63 2630.72 3084.67 2615.78 3088.6 2602.79C3088.94 2601.68 3089.94 2601.1 3090.85 2601.53C3091.75 2601.95 3092.21 2603.19 3091.88 2604.31C3088.31 2616.11 3089.18 2629.68 3094.22 2640.64C3094.69 2641.68 3094.39 2642.99 3093.55 2643.59C3093.28 2643.77 3092.99 2643.87 3092.69 2643.87Z" fill="#EBB373"/>
<path d="M3114.38 2631.51C3113.77 2631.51 3113.18 2631.11 3112.85 2630.41C3107.32 2618.37 3106.36 2603.43 3110.29 2590.44C3110.63 2589.33 3111.63 2588.76 3112.55 2589.17C3113.45 2589.6 3113.9 2590.83 3113.57 2591.96C3110 2603.76 3110.87 2617.34 3115.91 2628.29C3116.38 2629.32 3116.08 2630.64 3115.24 2631.23C3114.97 2631.42 3114.67 2631.51 3114.38 2631.51Z" fill="#EBB373"/>
<path d="M3136.26 2612.76C3135.65 2612.76 3135.06 2612.36 3134.74 2611.66C3129.2 2599.61 3128.24 2584.67 3132.17 2571.69C3132.51 2570.58 3133.5 2570 3134.42 2570.42C3135.32 2570.84 3135.78 2572.08 3135.45 2573.2C3131.88 2584.99 3132.75 2598.58 3137.79 2609.53C3138.26 2610.57 3137.96 2611.88 3137.12 2612.48C3136.85 2612.68 3136.56 2612.76 3136.26 2612.76Z" fill="#EBB373"/>
<path opacity="0.3" d="M2990.31 2583.9L3014.61 2600.61L2976.88 2718.08L2948.46 2706.91L2990.31 2583.9Z" fill="black"/>
<path d="M2439.76 2070.82L2538.59 2145.36C2665.5 2153.1 3094.33 2157.48 3095.59 2345.7C3137.68 2567.56 2749.35 2546.43 2491.2 2549.53C2489.45 2549.56 2487.94 2550.86 2486.91 2552.86C2484.63 2557.28 2459.59 2573.12 2427.59 2579.39C2388.18 2587.11 2298.03 2593.87 2240.12 2582.57C2140.22 2563.07 2111.41 2446 2130.53 2281.32C2138.38 2213.65 2168.68 2158.7 2177.89 2074.39L2439.76 2070.82Z" fill="#263238"/>
<path opacity="0.2" d="M2168.93 2321.24L2169.55 2328.92C2169.55 2328.92 2496.13 2262.21 2695.09 2423.55C2695.09 2423.55 2910.69 2358.27 2954.52 2308.63C2715.72 2463.64 2501.85 2284.16 2501.85 2284.16L2396.5 2226.08C2310.43 2178.63 2223.75 2214.87 2168.93 2321.24Z" fill="black"/>
<path d="M2538.7 2582.22L2576.41 2678.15L2795.32 2604.8L2739.17 2457.94L2538.7 2582.22Z" fill="#EEC1BB"/>
<path d="M2624.71 2676.11L2606.64 2645.47C2602.56 2638.54 2595.93 2634.68 2588.98 2634.66C2559.01 2634.54 2558.57 2614.64 2565.62 2578.92C2559.57 2565.67 2546.27 2572.58 2542.63 2574.33L2461.61 2612.05C2454.8 2615.13 2451.3 2624.43 2453.79 2632.83C2454.23 2634.33 2454.85 2635.74 2455.63 2637.01C2477.56 2674.21 2487.95 2691.81 2515.26 2738.1L2598.78 2879.7C2621.55 2918.31 2657.8 2897.99 2651.34 2879.47C2621.97 2796.47 2609.16 2730.53 2612.98 2693.3C2613.51 2686.55 2618.2 2688.77 2624.71 2676.11Z" fill="#263238"/>
<path d="M2644.73 2759.81C2648.51 2761.35 2652.65 2760.58 2655.89 2757.73C2657.78 2756.45 2658.91 2753.96 2658.8 2751.3C2658.65 2736.75 2621.55 2711.48 2617.31 2708.71C2616.89 2708.35 2616.36 2708.25 2615.87 2708.43C2614.97 2708.76 2614.45 2709.93 2614.72 2711.04C2618.47 2722.08 2623.14 2732.6 2628.65 2742.43C2632.37 2750.2 2638 2756.29 2644.73 2759.81ZM2655.03 2751.02C2655.1 2752.15 2654.59 2753.21 2653.76 2753.69C2651.34 2755.62 2648.37 2756.17 2645.6 2755.2C2635.2 2751.23 2625.08 2728.19 2620.12 2715.36C2635.17 2726.18 2654.91 2743.03 2655.03 2751.02Z" fill="#EBB373"/>
<path d="M2615.16 2712.64C2625.83 2720.65 2655.37 2730.99 2662.71 2722.41C2664.29 2720.68 2665.43 2717.37 2662.93 2711.66C2652.49 2688.91 2616.62 2707.34 2615.33 2708.51C2614.68 2708.77 2614.22 2709.49 2614.17 2710.32C2614.3 2710.79 2614.55 2711.21 2614.87 2711.52L2615.16 2712.64ZM2660 2713.21C2661.98 2717.4 2660.85 2718.42 2660.44 2718.78C2656.15 2724.32 2633.1 2718.25 2620.38 2710.55C2629.05 2706.75 2651.41 2698.44 2659.26 2711.73L2660 2713.21Z" fill="#EBB373"/>
<path d="M2618.09 2716.74C2617.63 2716.74 2617.18 2716.53 2616.83 2716.08C2609.77 2706.99 2599.45 2702.1 2589.28 2702.92C2588.31 2703.09 2587.49 2702.09 2587.42 2700.92C2587.36 2699.72 2588.09 2698.7 2589.05 2698.62C2600.26 2697.57 2611.59 2703.09 2619.36 2713.1C2620.03 2713.96 2620.01 2715.33 2619.31 2716.16C2618.97 2716.54 2618.53 2716.74 2618.09 2716.74Z" fill="#EBB373"/>
<path d="M2617.71 2746.21C2617.25 2746.21 2616.79 2745.99 2616.45 2745.54C2609.38 2736.46 2599.05 2731.58 2588.9 2732.38C2588.03 2732.57 2587.1 2731.56 2587.04 2730.37C2586.97 2729.18 2587.7 2728.15 2588.67 2728.07C2599.87 2727.16 2611.2 2732.56 2618.98 2742.55C2619.65 2743.42 2619.63 2744.78 2618.93 2745.6C2618.58 2746 2618.15 2746.21 2617.71 2746.21Z" fill="#EBB373"/>
<path d="M2621.92 2778.66C2621.46 2778.66 2621 2778.44 2620.66 2777.99C2613.59 2768.9 2603.28 2764.02 2593.11 2764.83C2592.25 2765.03 2591.32 2764.01 2591.25 2762.83C2591.18 2761.64 2591.91 2760.61 2592.88 2760.53C2604.09 2759.52 2615.41 2765.02 2623.18 2775.01C2623.85 2775.88 2623.83 2777.24 2623.13 2778.07C2622.79 2778.46 2622.35 2778.66 2621.92 2778.66Z" fill="#EBB373"/>
<path d="M2997.21 2575.24C2997.21 2575.24 2494.47 2228 2321.8 2221.4C2149.13 2214.81 2129.56 2375.59 2193.07 2499.34C2256.6 2623.09 2415.96 2563.1 2415.96 2563.1C2415.96 2563.1 2289.89 2523.74 2305.49 2481.56C2321.1 2439.38 2367.67 2504.84 2367.67 2504.84C2367.67 2504.84 2673.11 2659.58 2945.67 2714.43L2997.21 2575.24Z" fill="#263238"/>
<path opacity="0.2" d="M2738.16 2403.35L2899.99 2518.58L2917.07 2516.35L2763.9 2397.3L2738.16 2403.35Z" fill="black"/>
<path opacity="0.2" d="M2481.36 2557.86C2481.36 2557.86 2318.29 2478.05 2320.1 2478.05C2321.9 2478.05 2422.86 2571.41 2455.92 2570.97L2481.36 2557.86Z" fill="black"/>
<path d="M2516.02 1470.95C2516.02 1470.95 2535.72 1465.38 2607.85 1569.09C2656.82 1639.51 2731.17 1691.33 2731.17 1691.33C2737.57 1674.36 2849.96 1470.95 2849.96 1470.95L2921.46 1521.04C2921.46 1521.04 2816.49 1855.96 2748.23 1869.12C2679.98 1882.28 2520.88 1712.96 2520.88 1712.96L2516.02 1470.95Z" fill="#EBB373"/>
<path d="M2123.54 1594.12C2154.64 1709.35 2156.1 1969.76 2145.08 2113.61H2529.72C2590.36 1826.63 2537.86 1622.51 2532.69 1555.27C2526.25 1473.47 2516.02 1470.36 2516.02 1470.36C2516.02 1470.36 2444.08 1461.7 2381.49 1462.29C2333.02 1464.53 2284.75 1471 2237.02 1481.66C2201.51 1488.97 2166.36 1498.73 2131.73 1510.89C2116.87 1516.1 2108.24 1535.2 2112.47 1553.53C2112.61 1554.11 2112.75 1554.69 2112.91 1555.27C2116.62 1568.14 2120.23 1581.37 2123.54 1594.12Z" fill="#EBB373"/>
<path opacity="0.2" d="M2145.08 2113.61C2154.27 1979.61 2224.73 1825.06 2213.67 1691.27C2246.39 1748.62 2257.23 1861.22 2270.5 1986.97C2274.82 2027.91 2395.28 2069.32 2400.95 2111.61L2145.08 2113.61Z" fill="black"/>
<path d="M2205.92 1496.93C2187.98 1528.56 2408.5 1579.44 2408.5 1579.44C2408.5 1579.44 2537.57 1476.13 2386.85 1460C2356.15 1456.64 2234.28 1447.26 2205.92 1496.93Z" fill="#CD877B"/>
<path d="M2415.71 1638.02C2415.71 1638.02 2534.55 1517.02 2473.03 1444.61C2411.52 1372.2 2122.08 1339.84 2146.55 1504.75C2146.55 1504.75 2183.79 1491.16 2221.42 1535.42C2300.68 1629 2415.71 1638.02 2415.71 1638.02Z" fill="#EBB373"/>
<path opacity="0.2" d="M2405.77 1603.26C2405.77 1603.26 2473.03 1538.79 2449.34 1480.7C2425.65 1422.6 2285.66 1358.98 2185.35 1439.08C2209.4 1454.28 2231.75 1473.29 2251.83 1495.61C2291.61 1537.59 2405.77 1603.26 2405.77 1603.26Z" fill="black"/>
<path opacity="0.2" d="M2380.22 1611.45C2380.28 1616.03 2377.31 1619.8 2373.59 1619.86C2369.88 1619.93 2366.82 1616.27 2366.77 1611.68C2366.71 1607.1 2369.68 1603.32 2373.4 1603.26C2373.46 1603.26 2373.53 1603.26 2373.6 1603.26C2377.23 1603.32 2380.17 1606.95 2380.22 1611.45Z" fill="black"/>
<path opacity="0.2" d="M2447.29 1587.63C2447.35 1592.14 2444.42 1595.86 2440.76 1595.92C2440.72 1595.92 2440.7 1595.92 2440.66 1595.92C2436.97 1596.47 2433.62 1593.23 2433.17 1588.68C2432.73 1584.13 2435.35 1580 2439.04 1579.44C2439.58 1579.37 2440.12 1579.37 2440.66 1579.44C2444.32 1579.44 2447.29 1583.11 2447.29 1587.63Z" fill="black"/>
<path d="M2509.78 1670.62C2509.84 1675.2 2506.87 1678.98 2503.15 1679.04C2499.43 1679.11 2496.38 1675.44 2496.33 1670.86C2496.28 1666.28 2499.24 1662.5 2502.96 1662.44C2503 1662.44 2503.03 1662.44 2503.06 1662.44C2506.74 1662.44 2509.73 1666.09 2509.78 1670.62Z" fill="#263238"/>
<path d="M2365.02 1712.96C2365.02 1717.48 2362.05 1721.14 2358.39 1721.14C2354.72 1721.14 2351.75 1717.48 2351.75 1712.96C2351.75 1708.44 2354.72 1704.78 2358.39 1704.78C2362.05 1704.78 2365.02 1708.44 2365.02 1712.96Z" fill="#263238"/>
<path d="M2501.5 1674.1C2501.5 1674.1 2475.47 1669.78 2470.99 1628.76C2470.46 1608.92 2457.24 1593.21 2441.16 1593.28C2439.79 1593.28 2438.62 1592.08 2438.62 1590.39C2438.52 1588.8 2439.47 1587.41 2440.76 1587.27C2440.83 1587.26 2440.89 1587.26 2440.96 1587.26C2459.48 1587.29 2474.78 1605.1 2475.86 1627.92C2479.76 1664 2501.89 1668.1 2502.09 1668.22C2503.4 1668.41 2504.35 1669.84 2504.23 1671.47C2504.03 1673.09 2502.83 1674.25 2501.5 1674.1Z" fill="#263238"/>
<path d="M2358.39 1712.96C2357.08 1712.96 2356 1711.69 2355.95 1710.07C2355.42 1688.96 2361.69 1668.46 2373.4 1653.06C2377.99 1648.08 2380.7 1640.99 2380.91 1633.45C2380.4 1625.9 2377.78 1618.79 2373.5 1613.36C2372.4 1612.41 2372.14 1610.52 2372.92 1609.17C2373.7 1607.82 2375.23 1607.51 2376.32 1608.47C2376.5 1608.63 2376.67 1608.82 2376.81 1609.04C2382.09 1615.42 2385.28 1623.98 2385.78 1633.09C2385.63 1642.27 2382.42 1650.97 2376.91 1657.14C2366.24 1671.34 2360.47 1690.1 2360.82 1709.47C2360.89 1711.11 2359.91 1712.53 2358.58 1712.72L2358.39 1712.96Z" fill="#263238"/>
<path d="M2616.91 2334.8L2636.25 2339.12C2636.25 2339.12 2630.88 2317.65 2699.38 2289.62C2767.88 2261.57 2836.17 2246.37 2836.17 2246.37C2836.17 2246.37 2712.27 2238.7 2709.05 2238.7C2705.83 2238.7 2591.19 2288.92 2591.19 2288.92L2616.91 2334.8Z" fill="#E4873E"/>
<path d="M2567.85 2178.79C2571.26 2178.85 2836.18 2246.37 2836.18 2246.37C2836.18 2246.37 2651.99 2238.04 2616.91 2334.81L2402.51 2226.18C2402.51 2226.18 2462.62 2176.81 2567.85 2178.79Z" fill="#EBEBEB"/>
<path d="M3014.61 2178.75V2193.01C3014.61 2193.01 2895.62 2175.98 2836.18 2246.37L2832.98 2212.56L2911.83 2167.92L3014.61 2178.75Z" fill="#E4873E"/>
<path d="M2773.92 2112.75C2773.92 2112.75 2630.22 2065.83 2577.39 2181L2836.18 2246.37C2836.18 2246.37 2848.14 2158.62 3014.61 2178.75L2773.92 2112.75Z" fill="#EBEBEB"/>
<path d="M2120.36 1518.25C2114.29 1520.93 2074.81 1561.64 2076.71 1657.01C2079.5 1796.81 2107.4 2086.46 2120.36 2113.61C2133.31 2140.78 2476.26 2259.4 2481.36 2266.27C2486.45 2273.14 2504.24 2192.44 2504.24 2192.44L2240.2 1985.8C2240.2 1985.8 2224.58 1694.63 2218.35 1650.96C2212.13 1607.29 2194.13 1485.6 2120.36 1518.25Z" fill="#EBB373"/>
<path d="M2501.23 2205.58L2516.02 2213.78C2516.02 2213.78 2585.91 2206.98 2603.63 2228.77C2621.36 2250.57 2631.29 2350.03 2631.29 2350.03L2481.36 2266.27L2501.23 2205.58Z" fill="#EEC1BB"/>
<path d="M2259.31 1506.28C2259.31 1506.28 2291.2 1532.26 2336.15 1565.98C2345.51 1573.01 2393.32 1598.96 2403.71 1603.26L2423.05 1582.79C2424.01 1579.13 2424.6 1575.25 2424.89 1571.26C2426.83 1544.5 2419.75 1508.87 2400.71 1495.82C2379.25 1481.09 2367.96 1467.05 2367.98 1441.15C2367.85 1426.5 2370.05 1410.89 2373.01 1395.57L2348.94 1383.85L2257.83 1302.73C2274.79 1360.45 2295.65 1462.63 2259.31 1506.28Z" fill="#EEC1BB"/>
<path opacity="0.2" d="M2368.09 1446.81C2344.52 1435.5 2317.3 1413.08 2315.92 1381.36C2315.41 1367.99 2316.03 1355.1 2317.5 1346.61L2370.68 1408.85C2368.65 1421.06 2368.36 1428.91 2368.09 1446.81Z" fill="black"/>
<path d="M2227.95 1196.32C2248.63 1293.7 2255.71 1335.36 2304.06 1378.71C2376.79 1443.93 2468.97 1398.05 2472.22 1296.64C2475.16 1205.37 2440.84 1061.45 2356.55 1036.04C2273.51 1011.02 2207.28 1098.93 2227.95 1196.32Z" fill="#EEC1BB"/>
<path d="M2340.35 1206.56C2342.15 1216.94 2347.9 1224.59 2353.2 1223.64C2358.48 1222.69 2361.31 1213.51 2359.51 1203.13C2357.7 1192.74 2351.95 1185.1 2346.66 1186.05C2341.37 1186.99 2338.55 1196.17 2340.35 1206.56Z" fill="#263238"/>
<path d="M2421.7 1189.32C2423.46 1199.38 2429.17 1206.77 2434.44 1205.82C2439.71 1204.88 2442.56 1195.96 2440.79 1185.9C2439.03 1175.84 2433.32 1168.46 2428.05 1169.4C2422.78 1170.35 2419.93 1179.27 2421.7 1189.32Z" fill="#263238"/>
<path d="M2314.47 1174.18C2315.51 1174.12 2316.5 1173.54 2317.17 1172.47C2327.62 1155.83 2342.18 1157.93 2342.35 1157.96C2344.51 1158.28 2346.4 1156.41 2346.52 1153.72C2346.64 1151.03 2344.96 1148.58 2342.77 1148.23C2342.01 1148.12 2323.72 1145.46 2310.75 1166.11C2309.47 1168.17 2309.85 1171.27 2311.62 1173.03C2312.48 1173.87 2313.5 1174.25 2314.47 1174.18Z" fill="#263238"/>
<path d="M2435 1135.59C2435.77 1135.09 2436.34 1134.21 2436.54 1133.05C2436.97 1130.66 2435.7 1128 2433.7 1127.11C2413.67 1118.16 2401.39 1130.6 2400.87 1131.15C2399.42 1132.66 2399.41 1135.55 2400.85 1137.6C2402.29 1139.65 2404.63 1140.09 2406.08 1138.59C2406.56 1138.1 2416.21 1128.63 2432.14 1135.75C2433.17 1136.22 2434.2 1136.12 2435 1135.59Z" fill="#263238"/>
<path d="M2392.96 1190.26C2392.96 1190.26 2410.49 1224.7 2427.75 1244.88C2430.77 1248.4 2430.03 1254.61 2426.42 1257.14C2417.12 1263.66 2405 1261.98 2405 1261.98L2392.96 1190.26Z" fill="#D4827D"/>
<path d="M2343.69 1187.09L2361.37 1177.95C2361.37 1177.95 2353.59 1196.95 2343.69 1187.09Z" fill="#263238"/>
<path d="M2425.33 1170.34L2443.01 1161.2C2443.01 1161.2 2435.23 1180.19 2425.33 1170.34Z" fill="#263238"/>
<path d="M2262.32 1325.83C1993.65 1120.56 2293.95 981.063 2293.95 981.063C2414.64 876.805 2418.83 1035.37 2418.83 1035.37C2479.28 1113.22 2393.71 1181.34 2393.71 1181.34C2429.76 1117.34 2373.97 1079.14 2373.97 1079.14C2382.55 1164.21 2315.27 1197.58 2315.27 1197.58C2341.59 1120.82 2324.8 1081.14 2324.8 1081.14C2305.51 1217.93 2250.1 1245.35 2250.1 1245.35L2262.32 1325.83Z" fill="#263238"/>
<path d="M2214.57 1281.89C2226.77 1300.23 2243.87 1309.81 2258.57 1311.28C2280.67 1313.49 2285.95 1269.15 2275.17 1244.41C2265.47 1222.14 2242.51 1210.79 2222.56 1220.18C2202.91 1229.43 2200.62 1260.92 2214.57 1281.89Z" fill="#EEC1BB"/>
<path opacity="0.2" d="M2267.58 1268.39C2266.8 1268.39 2266.09 1267.74 2265.89 1266.76C2264.28 1258.95 2260.97 1251.75 2256.33 1245.93C2253.3 1242.15 2248.42 1237.47 2242.37 1236.67C2236.9 1235.97 2231.43 1239.11 2229.32 1244.18C2228.88 1245.23 2227.82 1245.65 2226.96 1245.1C2226.11 1244.55 2225.76 1243.25 2226.21 1242.19C2229.01 1235.5 2235.8 1231.43 2242.74 1232.38C2249.83 1233.31 2255.4 1238.61 2258.82 1242.9C2263.91 1249.26 2267.52 1257.14 2269.28 1265.7C2269.52 1266.86 2268.95 1268.03 2268.02 1268.33C2267.87 1268.36 2267.72 1268.39 2267.58 1268.39Z" fill="black"/>
<path d="M2403.62 1297.86C2397.57 1307.48 2392.1 1317.64 2387.24 1328.24C2385.61 1327.51 2383.94 1326.81 2382.35 1325.98C2360.26 1315.6 2352.76 1301.82 2351.26 1289.62C2350.61 1283.64 2351.1 1277.56 2352.71 1271.86C2353.55 1268.62 2354.76 1265.54 2356.29 1262.71C2365.35 1276.86 2385.27 1288.47 2396.17 1294.13C2400.94 1296.29 2403.62 1297.86 2403.62 1297.86Z" fill="#263238"/>
<path d="M2396.42 1293.97L2391.38 1302.77C2370.65 1292.96 2357.11 1282.69 2352.97 1271.7C2353.81 1268.46 2355.02 1265.38 2356.55 1262.55C2365.66 1276.83 2385.53 1288.32 2396.42 1293.97Z" fill="white"/>
<path d="M2382.62 1325.82C2360.53 1315.43 2353.02 1301.66 2351.52 1289.46C2359.86 1293.59 2367.53 1299.51 2374.19 1306.94C2378.53 1312 2381.47 1318.59 2382.62 1325.82Z" fill="#C15854"/>
<path d="M1815.29 3364.73L1905.3 3567.78L1983.86 3538.96L1912.48 3303.3L1815.29 3364.73Z" fill="#895555"/>
<path d="M1925.36 3677.2L1981.54 3662.46C1981.54 3662.46 1984.75 3648.28 1996.6 3644.73C2003.25 3642.74 2020.93 3650.1 2020.93 3650.1L2175.68 3610.99C2175.63 3610.72 2173.54 3597.9 2170.88 3592.67C2167.64 3586.29 2164.25 3581.06 2160.76 3576.8C2148.51 3561.92 2129.8 3558.89 2115.9 3557.26C2092.61 3554.53 2025.33 3532.54 2025.33 3532.54C2025.33 3532.54 2007.9 3524.81 1993.47 3500.43C1985.42 3486.83 1974.72 3479.98 1967.85 3480.64C1953.81 3481.96 1947.95 3493.87 1948.67 3510.04L1949.53 3528.83C1940.78 3541.5 1926.98 3544.5 1914.32 3535.02C1914.32 3535.02 1881.77 3521.35 1886.45 3538.93C1889.12 3548.96 1902.43 3593.26 1912.09 3628.65C1914.35 3636.9 1916.48 3644.71 1918.34 3651.56H1918.35C1922.5 3666.76 1925.36 3677.2 1925.36 3677.2Z" fill="#263238"/>
<path d="M2061.3 3542.65C2060.47 3542.05 2059.39 3542.25 2058.69 3543.07C2055.49 3546.87 2053.07 3551.65 2051.82 3557.2C2051.16 3560.12 2054.95 3561.79 2055.61 3558.83C2056.72 3553.91 2058.83 3549.67 2061.63 3546.36C2062.56 3545.25 2062.44 3543.47 2061.33 3542.68C2061.32 3542.67 2061.31 3542.66 2061.3 3542.65Z" fill="#EBB373"/>
<path d="M2048.03 3537.74C2047.21 3537.15 2046.13 3537.35 2045.43 3538.17C2042.22 3541.96 2039.8 3546.75 2038.55 3552.29C2037.89 3555.21 2041.68 3556.88 2042.35 3553.93C2043.46 3549 2045.56 3544.77 2048.36 3541.45C2049.3 3540.34 2049.18 3538.56 2048.07 3537.77C2048.07 3537.77 2048.05 3537.75 2048.03 3537.74Z" fill="#EBB373"/>
<path d="M2034.5 3533.47C2033.67 3532.87 2032.59 3533.07 2031.89 3533.89C2028.69 3537.67 2026.27 3542.47 2025.02 3548.02C2024.36 3550.94 2028.15 3552.6 2028.81 3549.65C2029.92 3544.72 2032.03 3540.49 2034.83 3537.17C2035.77 3536.07 2035.64 3534.29 2034.53 3533.49C2034.53 3533.47 2034.51 3533.47 2034.5 3533.47Z" fill="#EBB373"/>
<path opacity="0.2" d="M1996.6 3644.74C2003.25 3642.74 2020.93 3650.11 2020.93 3650.11L2175.68 3611C2175.63 3610.73 2173.54 3597.91 2170.88 3592.68C2169.39 3589.75 2167.86 3587.12 2166.32 3584.67L1917.3 3647.75C1917.64 3649 1918.01 3650.37 1918.33 3651.57H1918.35C1922.49 3666.76 1925.36 3677.2 1925.36 3677.2L1981.54 3662.46C1981.54 3662.46 1984.76 3648.28 1996.6 3644.74Z" fill="white"/>
<path d="M2033.06 3538.3L2032.59 3536.34C2031.03 3529.89 2029.43 3523.21 2028.8 3516.35C2028.08 3508.56 2028.76 3501.65 2030.83 3495.83C2032.26 3491.79 2034.39 3489.33 2036.8 3488.91C2039.95 3488.38 2042.68 3491.32 2044.18 3494.28C2046.85 3499.6 2047.54 3506.65 2046.09 3513.61C2044.66 3520.45 2036.56 3533.02 2034.11 3536.71L2033.06 3538.3ZM2037.57 3491.02C2037.4 3491.02 2037.22 3491.04 2037.05 3491.07C2034.63 3491.48 2033.12 3494.78 2032.43 3496.7C2030.49 3502.17 2029.85 3508.7 2030.54 3516.13C2031.09 3522.1 2032.43 3528.01 2033.8 3533.76C2038.46 3526.59 2043.41 3517.82 2044.39 3513.08C2045.73 3506.68 2045.11 3500.25 2042.68 3495.44C2041.58 3493.24 2039.69 3491.02 2037.57 3491.02Z" fill="#EBB373"/>
<path d="M2031.35 3537.28C2026.37 3537.28 2015.38 3536.97 2010.69 3534.36C2005.37 3531.39 2001.36 3526.32 1999.67 3520.44C1998.73 3517.15 1998.55 3512.67 2000.89 3509.97C2002.66 3507.91 2005.54 3507.41 2008.99 3508.54C2013.95 3510.18 2018.76 3513.84 2023.25 3519.43C2027.19 3524.33 2030.4 3530.05 2033.5 3535.58L2034.44 3537.25L2032.79 3537.28C2032.39 3537.29 2031.91 3537.28 2031.35 3537.28ZM2005.57 3510.1C2004.32 3510.1 2003.03 3510.45 2002.08 3511.54C2000.37 3513.53 2000.56 3517.08 2001.32 3519.71C2002.85 3525.05 2006.52 3529.67 2011.4 3532.39C2015.02 3534.41 2023.66 3535.12 2031.1 3535.12C2028.33 3530.22 2025.43 3525.22 2021.99 3520.95C2017.73 3515.64 2013.2 3512.16 2008.53 3510.63C2007.76 3510.37 2006.68 3510.1 2005.57 3510.1Z" fill="#EBB373"/>
<path d="M1443.29 3513.65L1402.21 3739.47L1476.63 3781.84L1549.16 3546.69L1443.29 3513.65Z" fill="#895555"/>
<path d="M1358.71 3837.98L1408.79 3872.69C1408.79 3872.69 1418.79 3864.65 1429.58 3871.64C1435.64 3875.57 1444.98 3895.5 1444.98 3895.5L1582.12 3992.22C1582.23 3991.97 1587.52 3980.65 1588.32 3974.56C1589.29 3967.13 1589.55 3960.44 1589.2 3954.39C1587.97 3933.23 1575.54 3915.71 1565.98 3903.16C1549.95 3882.13 1511.19 3810.8 1511.19 3810.8C1511.19 3810.8 1502.24 3790.8 1504.46 3760.73C1505.7 3743.96 1501.32 3730.1 1495.8 3725C1484.56 3714.55 1473.78 3718.72 1465.67 3731.45L1456.26 3746.26C1442.91 3748.65 1430.94 3739.66 1426.5 3722.22C1426.5 3722.22 1409.38 3685.44 1403.47 3702.45C1400.11 3712.16 1386.39 3756.27 1374.71 3790.71C1371.99 3798.75 1369.41 3806.34 1367.14 3813L1367.16 3813.02C1362.14 3827.81 1358.71 3837.98 1358.71 3837.98Z" fill="#263238"/>
<path d="M1532.81 3847.69C1532.51 3846.57 1531.59 3845.84 1530.62 3845.89C1526.18 3846.12 1521.81 3847.75 1517.9 3850.9C1515.84 3852.56 1517.79 3856.89 1519.87 3855.22C1523.34 3852.42 1527.19 3850.96 1531.07 3850.75C1532.37 3850.68 1533.23 3849.25 1532.82 3847.75C1532.81 3847.73 1532.81 3847.71 1532.81 3847.69Z" fill="#EBB373"/>
<path d="M1525.47 3833.2C1525.17 3832.08 1524.26 3831.35 1523.29 3831.4C1518.85 3831.63 1514.47 3833.26 1510.57 3836.41C1508.51 3838.07 1510.46 3842.4 1512.54 3840.73C1516.01 3837.93 1519.86 3836.47 1523.74 3836.26C1525.03 3836.19 1525.9 3834.76 1525.49 3833.26C1525.49 3833.24 1525.48 3833.22 1525.47 3833.2Z" fill="#EBB373"/>
<path d="M1517.6 3818.96C1517.3 3817.83 1516.38 3817.1 1515.41 3817.15C1510.97 3817.39 1506.6 3819.01 1502.69 3822.16C1500.63 3823.82 1502.58 3828.15 1504.66 3826.47C1508.13 3823.68 1511.98 3822.21 1515.86 3822.01C1517.16 3821.94 1518.02 3820.5 1517.61 3819C1517.61 3819 1517.6 3818.98 1517.6 3818.96Z" fill="#EBB373"/>
<path opacity="0.2" d="M1429.59 3871.64C1435.65 3875.57 1444.99 3895.5 1444.99 3895.5L1582.13 3992.22C1582.24 3991.97 1587.53 3980.65 1588.32 3974.56C1588.77 3971.14 1589.03 3967.93 1589.19 3964.82L1368.42 3809.3C1368.01 3810.52 1367.55 3811.85 1367.16 3813.01L1367.17 3813.02C1362.15 3827.81 1358.71 3837.98 1358.71 3837.98L1408.8 3872.69C1408.8 3872.69 1418.79 3864.66 1429.59 3871.64Z" fill="white"/>
<path d="M1513.93 3821.43L1514.63 3819.57C1516.91 3813.46 1519.27 3807.15 1522.47 3801.47C1526.11 3795.02 1530.32 3790.39 1534.98 3787.72C1538.23 3785.86 1541.13 3785.74 1543.16 3787.39C1545.84 3789.56 1546.29 3794.01 1545.82 3797.44C1544.99 3803.6 1541.75 3809.46 1536.92 3813.51C1532.2 3817.47 1519.38 3820.31 1515.57 3821.08L1513.93 3821.43ZM1539.8 3788.39C1538.27 3788.39 1536.71 3789.11 1535.72 3789.68C1531.34 3792.19 1527.37 3796.57 1523.9 3802.71C1521.11 3807.66 1518.95 3813.19 1516.9 3818.62C1524.24 3817.02 1532.65 3814.48 1535.93 3811.73C1540.36 3808.01 1543.33 3802.67 1544.09 3797.09C1544.47 3794.33 1544.16 3790.79 1542.2 3789.2C1541.48 3788.61 1540.64 3788.39 1539.8 3788.39Z" fill="#EBB373"/>
<path d="M1515.52 3821.76L1514.26 3820.44C1511.34 3817.32 1501.6 3806.67 1499.24 3800.24C1496.83 3793.69 1496.53 3786.6 1498.42 3780.8C1499.47 3777.57 1501.74 3774.07 1504.94 3773.93C1504.99 3773.93 1505.06 3773.93 1505.12 3773.93C1507.49 3773.93 1509.85 3775.9 1511.78 3779.47C1514.63 3784.76 1516.27 3791.42 1516.65 3799.26C1516.99 3806.15 1516.34 3813.07 1515.71 3819.74L1515.52 3821.76ZM1505.12 3776.09C1505.08 3776.09 1505.03 3776.09 1504.99 3776.09C1502.64 3776.19 1500.89 3779.01 1500.04 3781.62C1498.33 3786.86 1498.62 3793.32 1500.83 3799.35C1502.47 3803.81 1508.58 3811.39 1514.17 3817.46C1514.72 3811.52 1515.2 3805.41 1514.91 3799.4C1514.55 3791.94 1513.01 3785.64 1510.33 3780.67C1509.39 3778.95 1507.49 3776.09 1505.12 3776.09Z" fill="#EBB373"/>
<path d="M1515.19 2038.31C1515.19 2038.31 1541.16 2323.58 1548.1 2338.88C1571.57 2390.64 1727.05 2479.38 1727.05 2479.38L1806.33 2458.89L1863.14 2517.43L1825.68 2553.63L1781.73 2533.14C1757.75 2538.42 1733.43 2541.05 1709.07 2541C1668.12 2541 1470.64 2479.25 1437.69 2411.31C1404.73 2343.38 1389.59 2028.82 1389.59 2028.82L1515.19 2038.31Z" fill="#895555"/>
<path d="M1386.23 2150.44C1386.23 2150.44 1325.3 1899.91 1401.21 1830.36C1477.12 1760.81 1537.48 2105.26 1537.48 2105.26L1386.23 2150.44Z" fill="#EBB373"/>
<path d="M1434.3 2608.68L1433.71 2276.62L1427.93 1821.96L1276.52 1795.27L1147.57 1793.84L973.056 1860.76L969.379 1972.32C969.379 1972.32 987.39 2484.6 986.375 2500.04C985.135 2518.97 981.27 2659.5 981.27 2659.5C1180.22 2715.46 1437.44 2625.61 1434.3 2608.68Z" fill="#F3B771"/>
<path opacity="0.2" d="M1431.48 2136.92L1423.34 1922.77L1462.16 2127.76L1431.48 2136.92Z" fill="black"/>
<path opacity="0.2" d="M1094.84 2168.11C1099.74 2166.93 1124.54 2156.91 1124.54 2156.91L1069.41 1967.71L1145.09 2177.01L1099.6 2199.35L1094.84 2168.11Z" fill="black"/>
<path d="M1073.53 2011.2C1073.53 2011.2 1112.11 2327.91 1134.39 2357.52C1172.04 2407.54 1358.56 2540.3 1358.56 2540.3L1451.65 2500.03C1458.18 2497.38 1465.39 2498.83 1470.72 2503.85L1534.37 2563.8L1528.29 2570.12C1525.66 2572.85 1521.86 2573.41 1518.77 2571.51L1508.88 2565.43L1519.94 2578.81L1516.44 2582.45C1512.95 2586.08 1508.12 2587.38 1503.65 2585.9L1475.19 2576.48L1501.46 2598.05C1495.59 2604.15 1487.43 2606.26 1479.94 2603.63L1438.31 2588.98C1409.91 2597 1380.98 2602.12 1351.85 2604.26C1302.83 2607.98 1071.3 2508.17 1028.14 2435.1C984.981 2362.02 940.486 2058.57 940.486 2058.57L1073.53 2011.2Z" fill="#895555"/>
<path d="M950.332 2221.9C950.332 2221.9 892.637 1934.86 968.546 1865.31C1044.45 1795.75 1119.64 2158.89 1119.64 2158.89L950.332 2221.9Z" fill="#EBB373"/>
<path d="M1571.65 2586.74H1428.47H1276.53C1276.53 2586.78 1276.53 2586.82 1276.53 2586.86C1276.61 2600.76 1289.19 2611.98 1304.64 2611.92H1456.44H1543.28C1543.42 2611.92 1543.55 2611.92 1543.68 2611.92H1543.7H1785.37C1800.69 2611.79 1813.02 2600.53 1812.95 2586.74H1571.65Z" fill="#263238"/>
<path d="M1789.79 2610.5H1520.18C1515.52 2610.46 1511.78 2606.7 1511.83 2602.08C1511.83 2601.22 1511.97 2600.35 1512.25 2599.53L1632.19 2260.28C1635.21 2250.59 1644.25 2243.96 1654.49 2243.92H1924.27C1928.83 2243.92 1932.53 2247.58 1932.53 2252.1C1932.53 2253.04 1932.36 2253.99 1932.04 2254.88L1812.1 2594.13C1809.01 2603.79 1800.01 2610.39 1789.79 2610.5Z" fill="#263238"/>
<path opacity="0.7" d="M1924.26 2243.91H1654.49C1644.24 2243.95 1635.21 2250.58 1632.18 2260.27L1516.77 2586.74H1428.46H1276.52C1276.52 2586.77 1276.52 2586.82 1276.52 2586.86C1276.6 2600.76 1289.18 2611.98 1304.63 2611.92H1456.44H1543.28C1543.41 2611.92 1543.54 2611.92 1543.67 2611.92H1543.7H1785.36C1790.22 2611.87 1794.71 2610.61 1798.67 2608.61C1804.94 2606 1809.96 2600.83 1812.09 2594.13L1932.03 2254.88C1932.35 2253.99 1932.52 2253.04 1932.52 2252.09C1932.52 2247.58 1928.83 2243.92 1924.26 2243.91Z" fill="white"/>
<path d="M1762.24 2424.53C1756.42 2440.81 1744.61 2451.99 1735.8 2449.72C1727 2447.44 1724.64 2432.6 1730.3 2416.28C1735.95 2399.95 1747.9 2389.03 1756.71 2391.31C1765.51 2393.58 1768.15 2407.82 1762.24 2424.53Z" fill="white"/>
<g opacity="0.3">
<path d="M1632.19 2260.28L1516.78 2586.75H1529.28L1654.5 2243.92C1644.25 2243.96 1635.21 2250.58 1632.19 2260.28Z" fill="black"/>
</g>
<path d="M1355.37 1399.87L1363.89 1406.04C1373.85 1406.29 1383.22 1415.58 1385.56 1427.54C1387.9 1439.5 1383 1453.04 1374.22 1458.87C1372.89 1459.75 1371.37 1460.65 1370.9 1462.41C1370.15 1465.22 1372.54 1467.63 1374.36 1469.57C1383.32 1479.12 1382.21 1498.11 1374.15 1508.81C1366.1 1519.52 1353.31 1522.97 1341.5 1521.82C1338.42 1480.73 1358.24 1440.98 1355.37 1399.87Z" fill="#263238"/>
<path d="M1101.8 1515.52C1089.12 1516.27 1076.45 1506.62 1071.32 1492.29C1069.91 1488.33 1069.02 1483.94 1069.6 1479.67C1071.18 1468.11 1081.93 1462.81 1091.08 1459.62C1080.86 1456.54 1074.01 1444 1072.05 1431.26C1071.15 1425.43 1071.07 1419.29 1072.61 1413.67C1075.18 1404.2 1082.06 1397.26 1089.57 1393.53C1097.07 1389.8 1105.27 1388.8 1113.33 1387.85L1159.77 1569.65C1149.4 1572.52 1138.63 1574.28 1128.16 1572.07C1117.68 1569.87 1107.46 1563.29 1101.61 1552.34C1095.76 1541.38 1095.21 1525.81 1101.8 1515.52Z" fill="#263238"/>
<path d="M1127.8 1801.43C1170.66 1756.33 1168.62 1631.23 1160.94 1563.2L1283.11 1693.85C1280.16 1701.54 1277.64 1709.48 1275.58 1717.6C1271.44 1732.1 1270.4 1747.66 1272.55 1762.81C1274.74 1775.3 1286.05 1810.12 1286.05 1810.12C1286.05 1810.12 1292.17 1849.05 1209.07 1847.21C1172.53 1851.25 1127.8 1801.43 1127.8 1801.43Z" fill="#895555"/>
<path opacity="0.2" d="M1182.82 1632.42C1175.5 1711.81 1240 1750.27 1272.59 1762.95C1270.44 1747.8 1271.49 1732.23 1275.63 1717.74L1182.82 1632.42Z" fill="black"/>
<path d="M1139.99 1503.89C1155.08 1597.69 1162 1650.97 1207.13 1692.74C1275.02 1755.58 1365.7 1698.24 1374.33 1600.57C1382.09 1512.66 1356.12 1374.02 1274.77 1349.53C1194.61 1325.41 1124.91 1410.08 1139.99 1503.89Z" fill="#895555"/>
<path d="M1117.68 1391.76C1122.87 1337.92 1231.77 1320.09 1265.08 1341.9C1270.06 1345.15 1209.73 1394.25 1213.46 1391.91L1184.44 1409.32C1179.62 1408.82 1171.14 1416.83 1168.26 1435.02C1168.26 1435.02 1187.41 1579.47 1157.68 1626.87C1128.4 1615.13 1120.57 1557.91 1108.17 1525.07C1089.72 1476.15 1066.05 1403.94 1117.68 1391.76Z" fill="#263238"/>
<path d="M1117.37 1587.66C1126.32 1611.01 1143.45 1627.09 1160.12 1633.93C1185.18 1644.22 1190.61 1611.96 1185.16 1582.53C1180.25 1556.03 1170.18 1524.39 1144.31 1526.85C1118.8 1529.28 1107.15 1560.96 1117.37 1587.66Z" fill="#895555"/>
<path d="M1246.12 1508.61C1247.17 1518.29 1252.3 1525.4 1257.58 1524.5C1262.86 1523.6 1266.29 1515.02 1265.24 1505.35C1264.2 1495.67 1259.07 1488.55 1253.79 1489.45C1248.51 1490.36 1245.08 1498.94 1246.12 1508.61Z" fill="#263238"/>
<path d="M1325.51 1502.98C1326.55 1512.66 1331.68 1519.78 1336.96 1518.88C1342.24 1517.98 1345.67 1509.4 1344.62 1499.72C1343.57 1490.05 1338.44 1482.93 1333.17 1483.83C1327.89 1484.73 1324.46 1493.3 1325.51 1502.98Z" fill="#263238"/>
<path d="M1308.91 1501.36C1308.91 1501.36 1339.67 1545.39 1349.98 1563.68C1340.06 1577.62 1320.09 1575.08 1320.09 1575.08L1308.91 1501.36Z" fill="#6D3939"/>
<path d="M1231.19 1470.81C1232.48 1471.22 1233.91 1470.8 1234.92 1469.58C1246.92 1454.98 1260.72 1458.01 1260.85 1458.03C1262.92 1458.52 1264.93 1456.9 1265.36 1454.43C1265.79 1451.96 1264.45 1449.57 1262.4 1449.08C1261.67 1448.91 1244.37 1445.12 1229.5 1463.23C1228.02 1465.03 1228.02 1467.92 1229.52 1469.67C1230 1470.24 1230.59 1470.61 1231.19 1470.81Z" fill="#263238"/>
<path opacity="0.2" d="M1171.64 1583.44C1170.86 1583.44 1170.15 1582.79 1169.95 1581.81C1168.37 1574.15 1165.13 1567.08 1160.57 1561.39C1157.61 1557.68 1152.83 1553.1 1146.89 1552.31C1141.53 1551.6 1136.18 1554.7 1134.11 1559.66C1133.66 1560.73 1132.6 1561.14 1131.76 1560.59C1130.9 1560.05 1130.56 1558.74 1131 1557.68C1133.75 1551.09 1140.47 1547.11 1147.26 1548.02C1154.24 1548.94 1159.7 1554.15 1163.07 1558.35C1168.06 1564.6 1171.62 1572.34 1173.35 1580.75C1173.58 1581.91 1173.02 1583.08 1172.08 1583.38C1171.93 1583.42 1171.79 1583.44 1171.64 1583.44Z" fill="black"/>
<path d="M1365.77 1456.25C1366.45 1455.96 1367.07 1455.43 1367.54 1454.68C1368.8 1452.65 1368.48 1449.77 1366.82 1448.26C1350.07 1433.08 1333.6 1440.3 1332.83 1440.5C1330.86 1441.39 1329.83 1444.02 1330.53 1446.39C1331.23 1448.76 1333.39 1449.96 1335.36 1449.12C1336.04 1448.78 1348.78 1443.42 1362.22 1455.61C1363.27 1456.57 1364.61 1456.76 1365.77 1456.25Z" fill="#263238"/>
<path d="M1092.12 1348.83C1096.14 1326.07 1119.39 1317.94 1137.8 1319.93C1134.43 1293.26 1162.06 1273.77 1180.46 1271.95C1199.62 1270.06 1207.32 1278.27 1207.32 1278.27C1205.89 1278.85 1211.85 1264.2 1215.84 1258.17C1230.55 1235.9 1256.17 1226.26 1278.18 1234.71C1300.18 1243.16 1317.26 1269.21 1319.74 1298.08C1330.23 1281.98 1351.49 1279.63 1364.08 1293.18C1376.67 1306.73 1378.22 1333.64 1367.3 1349.29C1381.4 1348.4 1394.76 1364.5 1394.73 1382.34C1394.69 1400.19 1381.28 1416.13 1367.18 1415.09C1368.18 1435.03 1368.72 1460.01 1369.72 1479.95L1340.88 1410.1C1329.05 1406.81 1326.31 1400.88 1322.64 1386.31C1316.02 1406.16 1302.77 1406.44 1285.75 1407.97C1268.74 1409.51 1251.36 1398.13 1242.52 1379.68C1235.55 1400.42 1220.29 1417.53 1202.5 1419.46C1184.73 1421.37 1165.87 1405.02 1163.86 1382.61C1155.17 1403.17 1133.71 1413.4 1116.39 1405.25C1099.08 1397.1 1088.11 1371.6 1092.12 1348.83Z" fill="#263238"/>
<path d="M1317.19 1607.19C1310.64 1617.61 1304.71 1628.6 1299.45 1640.09C1297.69 1639.29 1295.89 1638.53 1294.16 1637.63C1270.26 1626.39 1262.13 1611.49 1260.51 1598.29C1259.81 1591.82 1260.35 1585.23 1262.08 1579.06C1262.99 1575.56 1264.3 1572.23 1265.96 1569.16C1275.75 1584.47 1297.31 1597.05 1309.11 1603.16C1314.28 1605.5 1317.19 1607.19 1317.19 1607.19Z" fill="#263238"/>
<path d="M1309.39 1602.99L1303.94 1612.52C1281.5 1601.89 1266.85 1590.79 1262.37 1578.88C1263.28 1575.37 1264.58 1572.05 1266.24 1568.99C1276.1 1584.44 1297.6 1596.87 1309.39 1602.99Z" fill="white"/>
<path d="M1294.44 1637.46C1270.54 1626.22 1262.41 1611.31 1260.8 1598.11C1269.81 1602.59 1278.12 1608.99 1285.33 1617.04C1290.02 1622.51 1293.2 1629.64 1294.44 1637.46Z" fill="#C15854"/>
<path d="M1733.55 2931.72C1730.6 2967.92 1724.24 3017.38 1716.58 3052.52C1695.79 3151.72 1672.03 3247.13 1642.17 3345.67C1584.41 3540.34 1537.74 3720.95 1537.74 3720.95L1391.03 3666.66C1391.03 3666.66 1488.02 3103.38 1553.44 3045.81H1152.31C1144.81 3045.81 1137.32 3045.19 1129.89 3043.95C1198.98 3032.92 1306.64 2980.39 1406.55 2927.86C1494.82 2881.32 1577.37 2834.78 1622.1 2817.23C1676.84 2846.09 1737.75 2874.93 1733.55 2931.72Z" fill="#263238"/>
<path opacity="0.6" d="M1622.2 2817.75C1577.37 2835.71 1494.82 2881.85 1406.65 2928.39C1306.75 2980.91 1199.08 3033.43 1130 3044.48C1013.6 3025.33 969.848 2854.19 1091.53 2656.86C1170.52 2656.86 1249.95 2749.94 1249.95 2749.94C1249.95 2749.94 1488.78 2748.48 1622.2 2817.75Z" fill="black"/>
<path d="M1948.86 3423.85L1851.87 3496.32C1851.87 3496.32 1770.93 3286.62 1693.55 3050.07C1701.21 3014.94 1706.54 2979.09 1709.5 2942.89C1713.71 2886.11 1677.17 2846.09 1622.43 2817.89C1577.6 2835.85 1495.04 2881.98 1406.88 2928.53C1306.97 2981.05 1199.3 3033.57 1130.22 3044.61C1122.29 3045.93 1114.3 3046.64 1106.3 3046.74C973.518 3046.74 927.713 2903.13 981.277 2659.52C1060.27 2659.52 1195.53 2649.02 1195.53 2649.02C1195.53 2649.02 1456.56 2571.63 1644.41 2597.95C1735.87 2611.25 1809.9 2695.89 1827.63 2807.39C1876.01 3103.12 1948.86 3423.85 1948.86 3423.85Z" fill="#263238"/>
<path d="M1964.18 3432.65L1851.87 3496.32C1851.87 3496.32 1770.93 3286.62 1693.55 3050.07C1701.21 3014.94 1706.54 2979.09 1709.51 2942.89C1713.71 2886.11 1677.17 2846.09 1622.43 2817.89C1577.6 2835.85 1495.04 2881.98 1406.88 2928.53C1306.97 2981.05 1199.3 3033.57 1130.22 3044.61C1122.29 3045.93 1114.3 3046.64 1106.3 3046.74C973.518 3046.74 927.713 2903.13 981.277 2659.52C1060.27 2659.52 1195.53 2649.02 1195.53 2649.02C1195.53 2649.02 1456.56 2571.63 1644.41 2597.95C1735.87 2611.25 1809.9 2695.89 1827.63 2807.39C1876.01 3103.12 1964.18 3432.65 1964.18 3432.65Z" fill="#263238"/>
<path opacity="0.2" d="M1733.55 2931.72C1730.6 2967.92 1724.24 3017.38 1716.58 3052.52C1695.79 3151.72 1672.03 3247.13 1642.17 3345.67C1584.41 3540.34 1537.74 3720.95 1537.74 3720.95L1391.03 3666.66C1391.03 3666.66 1488.02 3103.38 1553.44 3045.81H1152.31C1144.81 3045.81 1137.32 3045.19 1129.89 3043.95C1198.98 3032.92 1306.64 2980.39 1406.55 2927.86C1494.82 2881.32 1577.37 2834.78 1622.1 2817.23C1676.84 2846.09 1737.75 2874.93 1733.55 2931.72Z" fill="black"/>
<path d="M1286.14 2336.23C1305.81 2336.23 1321.75 2273.47 1321.75 2196.05C1321.75 2118.62 1305.81 2055.86 1286.14 2055.86C1266.47 2055.86 1250.52 2118.62 1250.52 2196.05C1250.52 2273.47 1266.47 2336.23 1286.14 2336.23Z" fill="white"/>
</svg>
